<mxfile host="Electron" modified="2024-06-21T09:53:26.420Z" agent="Mozilla/5.0 (Windows NT 10.0; Win64; x64) AppleWebKit/537.36 (KHTML, like Gecko) draw.io/24.5.3 Chrome/124.0.6367.207 Electron/30.0.6 Safari/537.36" etag="JfKaPX_0XUyJs3dQ99rg" version="24.5.3" type="device">
  <diagram name="Page-1" id="q9_LV-MpWPyjEsng9JZh">
    <mxGraphModel dx="2187" dy="672" grid="1" gridSize="10" guides="1" tooltips="1" connect="1" arrows="1" fold="1" page="1" pageScale="1" pageWidth="827" pageHeight="1169" math="0" shadow="0">
      <root>
        <mxCell id="0" />
        <mxCell id="1" parent="0" />
        <mxCell id="hAHwSwfUb9-SS9wKCGx1-1" value="&lt;b style=&quot;&quot;&gt;&lt;font style=&quot;font-size: 6px;&quot;&gt;ft_itInsell_TrackingNotifications&lt;/font&gt;&lt;/b&gt;" style="swimlane;fontStyle=0;childLayout=stackLayout;horizontal=1;startSize=20;horizontalStack=0;resizeParent=1;resizeParentMax=0;resizeLast=0;collapsible=1;marginBottom=0;whiteSpace=wrap;html=1;fillColor=#dae8fc;strokeColor=#6c8ebf;" parent="1" vertex="1">
          <mxGeometry x="310.5" y="340" width="113" height="60" as="geometry">
            <mxRectangle x="220" y="110" width="50" height="30" as="alternateBounds" />
          </mxGeometry>
        </mxCell>
        <mxCell id="hAHwSwfUb9-SS9wKCGx1-2" value="&lt;font style=&quot;font-size: 6px;&quot;&gt;&lt;b&gt;pk_itInsellTrackingNotifications&lt;/b&gt;&lt;/font&gt;" style="text;strokeColor=none;fillColor=none;align=center;verticalAlign=middle;spacingLeft=4;spacingRight=4;overflow=hidden;points=[[0,0.5],[1,0.5]];portConstraint=eastwest;rotatable=0;whiteSpace=wrap;html=1;" parent="hAHwSwfUb9-SS9wKCGx1-1" vertex="1">
          <mxGeometry y="20" width="113" height="20" as="geometry" />
        </mxCell>
        <mxCell id="hAHwSwfUb9-SS9wKCGx1-3" value="&lt;span style=&quot;font-size: 6px;&quot;&gt;fk_order&lt;/span&gt;" style="text;strokeColor=none;fillColor=none;align=center;verticalAlign=middle;spacingLeft=4;spacingRight=4;overflow=hidden;points=[[0,0.5],[1,0.5]];portConstraint=eastwest;rotatable=0;whiteSpace=wrap;html=1;" parent="hAHwSwfUb9-SS9wKCGx1-1" vertex="1">
          <mxGeometry y="40" width="113" height="20" as="geometry" />
        </mxCell>
        <mxCell id="hAHwSwfUb9-SS9wKCGx1-5" value="&lt;font style=&quot;font-size: 6px;&quot;&gt;&lt;b style=&quot;font-size: 12px;&quot;&gt;&lt;font style=&quot;font-size: 6px;&quot;&gt;ft&lt;/font&gt;&lt;/b&gt;&lt;b&gt;_printerQueue&lt;/b&gt;&lt;/font&gt;" style="swimlane;fontStyle=0;childLayout=stackLayout;horizontal=1;startSize=20;horizontalStack=0;resizeParent=1;resizeParentMax=0;resizeLast=0;collapsible=1;marginBottom=0;whiteSpace=wrap;html=1;fillColor=#dae8fc;strokeColor=#6c8ebf;" parent="1" vertex="1">
          <mxGeometry x="950" y="360" width="90" height="60" as="geometry">
            <mxRectangle x="220" y="110" width="50" height="30" as="alternateBounds" />
          </mxGeometry>
        </mxCell>
        <mxCell id="hAHwSwfUb9-SS9wKCGx1-6" value="&lt;font style=&quot;font-size: 6px;&quot;&gt;&lt;b&gt;pk_printerQueue&lt;/b&gt;&lt;/font&gt;" style="text;strokeColor=none;fillColor=none;align=center;verticalAlign=middle;spacingLeft=4;spacingRight=4;overflow=hidden;points=[[0,0.5],[1,0.5]];portConstraint=eastwest;rotatable=0;whiteSpace=wrap;html=1;" parent="hAHwSwfUb9-SS9wKCGx1-5" vertex="1">
          <mxGeometry y="20" width="90" height="20" as="geometry" />
        </mxCell>
        <mxCell id="hAHwSwfUb9-SS9wKCGx1-7" value="&lt;font style=&quot;font-size: 6px;&quot;&gt;fk_order&lt;/font&gt;" style="text;strokeColor=none;fillColor=none;align=center;verticalAlign=middle;spacingLeft=4;spacingRight=4;overflow=hidden;points=[[0,0.5],[1,0.5]];portConstraint=eastwest;rotatable=0;whiteSpace=wrap;html=1;" parent="hAHwSwfUb9-SS9wKCGx1-5" vertex="1">
          <mxGeometry y="40" width="90" height="20" as="geometry" />
        </mxCell>
        <mxCell id="hAHwSwfUb9-SS9wKCGx1-9" value="&lt;font size=&quot;1&quot; style=&quot;&quot;&gt;&lt;b style=&quot;font-size: 7px;&quot;&gt;ft_orderDetail&lt;/b&gt;&lt;/font&gt;" style="swimlane;fontStyle=0;childLayout=stackLayout;horizontal=1;startSize=20;horizontalStack=0;resizeParent=1;resizeParentMax=0;resizeLast=0;collapsible=1;marginBottom=0;whiteSpace=wrap;html=1;fillColor=#0050ef;fontColor=#ffffff;strokeColor=#001DBC;" parent="1" vertex="1">
          <mxGeometry x="920" y="565" width="60" height="100" as="geometry">
            <mxRectangle x="220" y="110" width="50" height="30" as="alternateBounds" />
          </mxGeometry>
        </mxCell>
        <mxCell id="hAHwSwfUb9-SS9wKCGx1-10" value="&lt;font style=&quot;font-size: 6px;&quot;&gt;&lt;b&gt;pk_orderDetail&lt;/b&gt;&lt;/font&gt;" style="text;strokeColor=none;fillColor=none;align=center;verticalAlign=middle;spacingLeft=4;spacingRight=4;overflow=hidden;points=[[0,0.5],[1,0.5]];portConstraint=eastwest;rotatable=0;whiteSpace=wrap;html=1;" parent="hAHwSwfUb9-SS9wKCGx1-9" vertex="1">
          <mxGeometry y="20" width="60" height="20" as="geometry" />
        </mxCell>
        <mxCell id="hAHwSwfUb9-SS9wKCGx1-11" value="&lt;span style=&quot;font-size: 6px;&quot;&gt;fk_order&lt;/span&gt;" style="text;strokeColor=none;fillColor=none;align=center;verticalAlign=middle;spacingLeft=4;spacingRight=4;overflow=hidden;points=[[0,0.5],[1,0.5]];portConstraint=eastwest;rotatable=0;whiteSpace=wrap;html=1;" parent="hAHwSwfUb9-SS9wKCGx1-9" vertex="1">
          <mxGeometry y="40" width="60" height="20" as="geometry" />
        </mxCell>
        <mxCell id="hAHwSwfUb9-SS9wKCGx1-12" value="&lt;font style=&quot;font-size: 6px;&quot;&gt;fk_product&lt;/font&gt;" style="text;strokeColor=none;fillColor=none;align=center;verticalAlign=middle;spacingLeft=4;spacingRight=4;overflow=hidden;points=[[0,0.5],[1,0.5]];portConstraint=eastwest;rotatable=0;whiteSpace=wrap;html=1;" parent="hAHwSwfUb9-SS9wKCGx1-9" vertex="1">
          <mxGeometry y="60" width="60" height="20" as="geometry" />
        </mxCell>
        <mxCell id="JQwDpqhkxF0Kz64Juls8-2" value="&lt;font style=&quot;font-size: 6px;&quot;&gt;fk_time&lt;/font&gt;" style="text;strokeColor=none;fillColor=none;align=center;verticalAlign=middle;spacingLeft=4;spacingRight=4;overflow=hidden;points=[[0,0.5],[1,0.5]];portConstraint=eastwest;rotatable=0;whiteSpace=wrap;html=1;" parent="hAHwSwfUb9-SS9wKCGx1-9" vertex="1">
          <mxGeometry y="80" width="60" height="20" as="geometry" />
        </mxCell>
        <mxCell id="hAHwSwfUb9-SS9wKCGx1-13" value="&lt;font size=&quot;1&quot; style=&quot;&quot;&gt;&lt;b style=&quot;font-size: 7px;&quot;&gt;ft_paymentRequest&amp;nbsp;&lt;/b&gt;&lt;/font&gt;" style="swimlane;fontStyle=0;childLayout=stackLayout;horizontal=1;startSize=20;horizontalStack=0;resizeParent=1;resizeParentMax=0;resizeLast=0;collapsible=1;marginBottom=0;whiteSpace=wrap;html=1;fillColor=#0050ef;strokeColor=#001DBC;fontColor=#ffffff;" parent="1" vertex="1">
          <mxGeometry x="600" y="230" width="70.5" height="80" as="geometry">
            <mxRectangle x="330" y="400" width="50" height="30" as="alternateBounds" />
          </mxGeometry>
        </mxCell>
        <mxCell id="hAHwSwfUb9-SS9wKCGx1-14" value="&lt;font style=&quot;font-size: 6px;&quot;&gt;&lt;b&gt;pk_paymentRequest&lt;/b&gt;&lt;/font&gt;" style="text;strokeColor=none;fillColor=none;align=center;verticalAlign=middle;spacingLeft=4;spacingRight=4;overflow=hidden;points=[[0,0.5],[1,0.5]];portConstraint=eastwest;rotatable=0;whiteSpace=wrap;html=1;" parent="hAHwSwfUb9-SS9wKCGx1-13" vertex="1">
          <mxGeometry y="20" width="70.5" height="20" as="geometry" />
        </mxCell>
        <mxCell id="hAHwSwfUb9-SS9wKCGx1-15" value="&lt;font style=&quot;font-size: 6px;&quot;&gt;fk_order&lt;/font&gt;" style="text;strokeColor=none;fillColor=none;align=center;verticalAlign=middle;spacingLeft=4;spacingRight=4;overflow=hidden;points=[[0,0.5],[1,0.5]];portConstraint=eastwest;rotatable=0;whiteSpace=wrap;html=1;" parent="hAHwSwfUb9-SS9wKCGx1-13" vertex="1">
          <mxGeometry y="40" width="70.5" height="20" as="geometry" />
        </mxCell>
        <mxCell id="JQwDpqhkxF0Kz64Juls8-1" value="&lt;font style=&quot;font-size: 6px;&quot;&gt;fk_time&lt;/font&gt;" style="text;strokeColor=none;fillColor=none;align=center;verticalAlign=middle;spacingLeft=4;spacingRight=4;overflow=hidden;points=[[0,0.5],[1,0.5]];portConstraint=eastwest;rotatable=0;whiteSpace=wrap;html=1;" parent="hAHwSwfUb9-SS9wKCGx1-13" vertex="1">
          <mxGeometry y="60" width="70.5" height="20" as="geometry" />
        </mxCell>
        <mxCell id="hAHwSwfUb9-SS9wKCGx1-17" value="&lt;b&gt;&lt;font style=&quot;font-size: 6px;&quot;&gt;ft&lt;/font&gt;&lt;/b&gt;&lt;b style=&quot;&quot;&gt;&lt;font style=&quot;font-size: 8px;&quot;&gt;_insuranceApiRequest&lt;/font&gt;&lt;/b&gt;" style="swimlane;fontStyle=0;childLayout=stackLayout;horizontal=1;startSize=20;horizontalStack=0;resizeParent=1;resizeParentMax=0;resizeLast=0;collapsible=1;marginBottom=0;whiteSpace=wrap;html=1;fillColor=#dae8fc;strokeColor=#6c8ebf;" parent="1" vertex="1">
          <mxGeometry x="100" y="920" width="97" height="120" as="geometry">
            <mxRectangle x="220" y="110" width="50" height="30" as="alternateBounds" />
          </mxGeometry>
        </mxCell>
        <mxCell id="hAHwSwfUb9-SS9wKCGx1-18" value="&lt;font style=&quot;font-size: 6px;&quot;&gt;&lt;b&gt;pk_insuranceApiRequest&lt;/b&gt;&lt;/font&gt;" style="text;strokeColor=none;fillColor=none;align=center;verticalAlign=middle;spacingLeft=4;spacingRight=4;overflow=hidden;points=[[0,0.5],[1,0.5]];portConstraint=eastwest;rotatable=0;whiteSpace=wrap;html=1;" parent="hAHwSwfUb9-SS9wKCGx1-17" vertex="1">
          <mxGeometry y="20" width="97" height="20" as="geometry" />
        </mxCell>
        <mxCell id="hAHwSwfUb9-SS9wKCGx1-19" value="&lt;font style=&quot;font-size: 6px;&quot;&gt;fk_order&lt;/font&gt;" style="text;strokeColor=none;fillColor=none;align=center;verticalAlign=middle;spacingLeft=4;spacingRight=4;overflow=hidden;points=[[0,0.5],[1,0.5]];portConstraint=eastwest;rotatable=0;whiteSpace=wrap;html=1;" parent="hAHwSwfUb9-SS9wKCGx1-17" vertex="1">
          <mxGeometry y="40" width="97" height="20" as="geometry" />
        </mxCell>
        <mxCell id="hAHwSwfUb9-SS9wKCGx1-20" value="&lt;span style=&quot;font-size: 6px;&quot;&gt;fk_client&lt;/span&gt;" style="text;strokeColor=none;fillColor=none;align=center;verticalAlign=middle;spacingLeft=4;spacingRight=4;overflow=hidden;points=[[0,0.5],[1,0.5]];portConstraint=eastwest;rotatable=0;whiteSpace=wrap;html=1;" parent="hAHwSwfUb9-SS9wKCGx1-17" vertex="1">
          <mxGeometry y="60" width="97" height="20" as="geometry" />
        </mxCell>
        <mxCell id="hAHwSwfUb9-SS9wKCGx1-21" value="&lt;font style=&quot;font-size: 6px;&quot;&gt;fk_insuranceProvider&lt;/font&gt;" style="text;strokeColor=none;fillColor=none;align=center;verticalAlign=middle;spacingLeft=4;spacingRight=4;overflow=hidden;points=[[0,0.5],[1,0.5]];portConstraint=eastwest;rotatable=0;whiteSpace=wrap;html=1;" parent="hAHwSwfUb9-SS9wKCGx1-17" vertex="1">
          <mxGeometry y="80" width="97" height="20" as="geometry" />
        </mxCell>
        <mxCell id="AXXjxFo4343gu81oyU7h-30" value="&lt;span style=&quot;font-size: 6px;&quot;&gt;fk_insuranceConfig&lt;/span&gt;" style="text;strokeColor=none;fillColor=none;align=center;verticalAlign=middle;spacingLeft=4;spacingRight=4;overflow=hidden;points=[[0,0.5],[1,0.5]];portConstraint=eastwest;rotatable=0;whiteSpace=wrap;html=1;" parent="hAHwSwfUb9-SS9wKCGx1-17" vertex="1">
          <mxGeometry y="100" width="97" height="20" as="geometry" />
        </mxCell>
        <mxCell id="AXXjxFo4343gu81oyU7h-27" value="" style="endArrow=none;html=1;rounded=0;endFill=0;" parent="hAHwSwfUb9-SS9wKCGx1-17" target="AXXjxFo4343gu81oyU7h-22" edge="1">
          <mxGeometry relative="1" as="geometry">
            <mxPoint x="-2.2737367544323206e-13" y="100.00025495750742" as="sourcePoint" />
            <mxPoint x="-90.17857142857156" y="171.5300000000002" as="targetPoint" />
            <Array as="points" />
          </mxGeometry>
        </mxCell>
        <mxCell id="AXXjxFo4343gu81oyU7h-28" value="N" style="edgeLabel;resizable=0;html=1;align=left;verticalAlign=bottom;" parent="AXXjxFo4343gu81oyU7h-27" connectable="0" vertex="1">
          <mxGeometry x="-1" relative="1" as="geometry">
            <mxPoint x="-13" y="20" as="offset" />
          </mxGeometry>
        </mxCell>
        <mxCell id="AXXjxFo4343gu81oyU7h-29" value="1" style="edgeLabel;resizable=0;html=1;align=right;verticalAlign=bottom;" parent="AXXjxFo4343gu81oyU7h-27" connectable="0" vertex="1">
          <mxGeometry x="1" relative="1" as="geometry">
            <mxPoint x="10" as="offset" />
          </mxGeometry>
        </mxCell>
        <mxCell id="hAHwSwfUb9-SS9wKCGx1-22" value="&lt;b&gt;&lt;font style=&quot;font-size: 6px;&quot;&gt;ft&lt;/font&gt;&lt;/b&gt;&lt;b style=&quot;&quot;&gt;&lt;font style=&quot;font-size: 5px;&quot;&gt;_announced_delivery_date&lt;/font&gt;&lt;/b&gt;" style="swimlane;fontStyle=0;childLayout=stackLayout;horizontal=1;startSize=20;horizontalStack=0;resizeParent=1;resizeParentMax=0;resizeLast=0;collapsible=1;marginBottom=0;whiteSpace=wrap;html=1;fillColor=#dae8fc;strokeColor=#6c8ebf;" parent="1" vertex="1">
          <mxGeometry x="655" y="760" width="75" height="60" as="geometry">
            <mxRectangle x="220" y="110" width="50" height="30" as="alternateBounds" />
          </mxGeometry>
        </mxCell>
        <mxCell id="hAHwSwfUb9-SS9wKCGx1-23" value="&lt;font style=&quot;font-size: 6px;&quot;&gt;&lt;b&gt;pk_announcedDeliveryDate&lt;/b&gt;&lt;/font&gt;" style="text;strokeColor=none;fillColor=none;align=center;verticalAlign=middle;spacingLeft=4;spacingRight=4;overflow=hidden;points=[[0,0.5],[1,0.5]];portConstraint=eastwest;rotatable=0;whiteSpace=wrap;html=1;" parent="hAHwSwfUb9-SS9wKCGx1-22" vertex="1">
          <mxGeometry y="20" width="75" height="20" as="geometry" />
        </mxCell>
        <mxCell id="hAHwSwfUb9-SS9wKCGx1-24" value="&lt;font style=&quot;font-size: 5px;&quot;&gt;fk_order&lt;/font&gt;" style="text;strokeColor=none;fillColor=none;align=center;verticalAlign=middle;spacingLeft=4;spacingRight=4;overflow=hidden;points=[[0,0.5],[1,0.5]];portConstraint=eastwest;rotatable=0;whiteSpace=wrap;html=1;" parent="hAHwSwfUb9-SS9wKCGx1-22" vertex="1">
          <mxGeometry y="40" width="75" height="20" as="geometry" />
        </mxCell>
        <mxCell id="hAHwSwfUb9-SS9wKCGx1-26" value="&lt;font style=&quot;font-size: 6px;&quot;&gt;&lt;b&gt;SegmentationHistory&lt;/b&gt;&lt;/font&gt;" style="swimlane;fontStyle=0;childLayout=stackLayout;horizontal=1;startSize=20;horizontalStack=0;resizeParent=1;resizeParentMax=0;resizeLast=0;collapsible=1;marginBottom=0;whiteSpace=wrap;html=1;fillColor=#60a917;fontColor=#ffffff;strokeColor=#2D7600;" parent="1" vertex="1">
          <mxGeometry x="-50" y="360" width="93" height="80" as="geometry">
            <mxRectangle x="220" y="110" width="50" height="30" as="alternateBounds" />
          </mxGeometry>
        </mxCell>
        <mxCell id="hAHwSwfUb9-SS9wKCGx1-27" value="&lt;font style=&quot;font-size: 6px;&quot;&gt;&lt;b&gt;SegmentationHistoryId&lt;/b&gt;&lt;/font&gt;" style="text;strokeColor=none;fillColor=none;align=center;verticalAlign=middle;spacingLeft=4;spacingRight=4;overflow=hidden;points=[[0,0.5],[1,0.5]];portConstraint=eastwest;rotatable=0;whiteSpace=wrap;html=1;" parent="hAHwSwfUb9-SS9wKCGx1-26" vertex="1">
          <mxGeometry y="20" width="93" height="20" as="geometry" />
        </mxCell>
        <mxCell id="hAHwSwfUb9-SS9wKCGx1-28" value="&lt;font style=&quot;font-size: 6px;&quot;&gt;ClientId&lt;/font&gt;" style="text;strokeColor=none;fillColor=none;align=center;verticalAlign=middle;spacingLeft=4;spacingRight=4;overflow=hidden;points=[[0,0.5],[1,0.5]];portConstraint=eastwest;rotatable=0;whiteSpace=wrap;html=1;" parent="hAHwSwfUb9-SS9wKCGx1-26" vertex="1">
          <mxGeometry y="40" width="93" height="20" as="geometry" />
        </mxCell>
        <mxCell id="hAHwSwfUb9-SS9wKCGx1-29" value="&lt;font style=&quot;font-size: 6px;&quot;&gt;OrderId&lt;/font&gt;" style="text;strokeColor=none;fillColor=none;align=center;verticalAlign=middle;spacingLeft=4;spacingRight=4;overflow=hidden;points=[[0,0.5],[1,0.5]];portConstraint=eastwest;rotatable=0;whiteSpace=wrap;html=1;" parent="hAHwSwfUb9-SS9wKCGx1-26" vertex="1">
          <mxGeometry y="60" width="93" height="20" as="geometry" />
        </mxCell>
        <mxCell id="hAHwSwfUb9-SS9wKCGx1-30" value="&lt;font style=&quot;font-size: 7px;&quot;&gt;&lt;b&gt;StockOut&lt;/b&gt;&lt;/font&gt;" style="swimlane;fontStyle=0;childLayout=stackLayout;horizontal=1;startSize=20;horizontalStack=0;resizeParent=1;resizeParentMax=0;resizeLast=0;collapsible=1;marginBottom=0;whiteSpace=wrap;html=1;fillColor=#a20025;fontColor=#ffffff;strokeColor=#6F0000;" parent="1" vertex="1">
          <mxGeometry x="1530" y="40" width="60" height="100" as="geometry">
            <mxRectangle x="220" y="110" width="50" height="30" as="alternateBounds" />
          </mxGeometry>
        </mxCell>
        <mxCell id="hAHwSwfUb9-SS9wKCGx1-31" value="&lt;font style=&quot;font-size: 6px;&quot;&gt;&lt;b&gt;EntryId&lt;/b&gt;&lt;/font&gt;" style="text;strokeColor=none;fillColor=none;align=center;verticalAlign=middle;spacingLeft=4;spacingRight=4;overflow=hidden;points=[[0,0.5],[1,0.5]];portConstraint=eastwest;rotatable=0;whiteSpace=wrap;html=1;" parent="hAHwSwfUb9-SS9wKCGx1-30" vertex="1">
          <mxGeometry y="20" width="60" height="20" as="geometry" />
        </mxCell>
        <mxCell id="hAHwSwfUb9-SS9wKCGx1-32" value="&lt;font style=&quot;font-size: 6px;&quot;&gt;OrderId&lt;/font&gt;" style="text;strokeColor=none;fillColor=none;align=center;verticalAlign=middle;spacingLeft=4;spacingRight=4;overflow=hidden;points=[[0,0.5],[1,0.5]];portConstraint=eastwest;rotatable=0;whiteSpace=wrap;html=1;" parent="hAHwSwfUb9-SS9wKCGx1-30" vertex="1">
          <mxGeometry y="40" width="60" height="20" as="geometry" />
        </mxCell>
        <mxCell id="hAHwSwfUb9-SS9wKCGx1-33" value="&lt;font style=&quot;font-size: 6px;&quot;&gt;OrderDetailId&lt;/font&gt;" style="text;strokeColor=none;fillColor=none;align=center;verticalAlign=middle;spacingLeft=4;spacingRight=4;overflow=hidden;points=[[0,0.5],[1,0.5]];portConstraint=eastwest;rotatable=0;whiteSpace=wrap;html=1;" parent="hAHwSwfUb9-SS9wKCGx1-30" vertex="1">
          <mxGeometry y="60" width="60" height="20" as="geometry" />
        </mxCell>
        <mxCell id="hAHwSwfUb9-SS9wKCGx1-34" value="&lt;font style=&quot;font-size: 6px;&quot;&gt;ProductId&lt;/font&gt;" style="text;strokeColor=none;fillColor=none;align=center;verticalAlign=middle;spacingLeft=4;spacingRight=4;overflow=hidden;points=[[0,0.5],[1,0.5]];portConstraint=eastwest;rotatable=0;whiteSpace=wrap;html=1;" parent="hAHwSwfUb9-SS9wKCGx1-30" vertex="1">
          <mxGeometry y="80" width="60" height="20" as="geometry" />
        </mxCell>
        <mxCell id="hAHwSwfUb9-SS9wKCGx1-39" value="&lt;font style=&quot;font-size: 7px;&quot;&gt;&lt;b&gt;ft_invoice&lt;/b&gt;&lt;/font&gt;" style="swimlane;fontStyle=0;childLayout=stackLayout;horizontal=1;startSize=20;horizontalStack=0;resizeParent=1;resizeParentMax=0;resizeLast=0;collapsible=1;marginBottom=0;whiteSpace=wrap;html=1;fillColor=#0050ef;fontColor=#ffffff;strokeColor=#001DBC;" parent="1" vertex="1">
          <mxGeometry x="800" y="160" width="60" height="80" as="geometry">
            <mxRectangle x="220" y="110" width="50" height="30" as="alternateBounds" />
          </mxGeometry>
        </mxCell>
        <mxCell id="hAHwSwfUb9-SS9wKCGx1-40" value="&lt;font style=&quot;font-size: 6px;&quot;&gt;&lt;b&gt;pk_invoice&lt;/b&gt;&lt;/font&gt;" style="text;strokeColor=none;fillColor=none;align=center;verticalAlign=middle;spacingLeft=4;spacingRight=4;overflow=hidden;points=[[0,0.5],[1,0.5]];portConstraint=eastwest;rotatable=0;whiteSpace=wrap;html=1;" parent="hAHwSwfUb9-SS9wKCGx1-39" vertex="1">
          <mxGeometry y="20" width="60" height="20" as="geometry" />
        </mxCell>
        <mxCell id="hAHwSwfUb9-SS9wKCGx1-41" value="&lt;font style=&quot;font-size: 6px;&quot;&gt;fk_order&lt;/font&gt;" style="text;strokeColor=none;fillColor=none;align=center;verticalAlign=middle;spacingLeft=4;spacingRight=4;overflow=hidden;points=[[0,0.5],[1,0.5]];portConstraint=eastwest;rotatable=0;whiteSpace=wrap;html=1;" parent="hAHwSwfUb9-SS9wKCGx1-39" vertex="1">
          <mxGeometry y="40" width="60" height="20" as="geometry" />
        </mxCell>
        <mxCell id="JQwDpqhkxF0Kz64Juls8-9" value="&lt;font style=&quot;font-size: 6px;&quot;&gt;fk_time&lt;/font&gt;" style="text;strokeColor=none;fillColor=none;align=center;verticalAlign=middle;spacingLeft=4;spacingRight=4;overflow=hidden;points=[[0,0.5],[1,0.5]];portConstraint=eastwest;rotatable=0;whiteSpace=wrap;html=1;" parent="hAHwSwfUb9-SS9wKCGx1-39" vertex="1">
          <mxGeometry y="60" width="60" height="20" as="geometry" />
        </mxCell>
        <mxCell id="hAHwSwfUb9-SS9wKCGx1-43" value="&lt;font style=&quot;font-size: 7px;&quot;&gt;&lt;b&gt;ft_creditnote&lt;/b&gt;&lt;/font&gt;" style="swimlane;fontStyle=0;childLayout=stackLayout;horizontal=1;startSize=20;horizontalStack=0;resizeParent=1;resizeParentMax=0;resizeLast=0;collapsible=1;marginBottom=0;whiteSpace=wrap;html=1;fillColor=#0050ef;fontColor=#ffffff;strokeColor=#001DBC;" parent="1" vertex="1">
          <mxGeometry x="910" y="110" width="60" height="80" as="geometry">
            <mxRectangle x="220" y="110" width="50" height="30" as="alternateBounds" />
          </mxGeometry>
        </mxCell>
        <mxCell id="hAHwSwfUb9-SS9wKCGx1-44" value="&lt;font style=&quot;font-size: 6px;&quot;&gt;&lt;b&gt;pk_creditNote&lt;/b&gt;&lt;/font&gt;" style="text;strokeColor=none;fillColor=none;align=center;verticalAlign=middle;spacingLeft=4;spacingRight=4;overflow=hidden;points=[[0,0.5],[1,0.5]];portConstraint=eastwest;rotatable=0;whiteSpace=wrap;html=1;" parent="hAHwSwfUb9-SS9wKCGx1-43" vertex="1">
          <mxGeometry y="20" width="60" height="20" as="geometry" />
        </mxCell>
        <mxCell id="hAHwSwfUb9-SS9wKCGx1-45" value="&lt;font style=&quot;font-size: 6px;&quot;&gt;fk_order&lt;/font&gt;" style="text;strokeColor=none;fillColor=none;align=center;verticalAlign=middle;spacingLeft=4;spacingRight=4;overflow=hidden;points=[[0,0.5],[1,0.5]];portConstraint=eastwest;rotatable=0;whiteSpace=wrap;html=1;" parent="hAHwSwfUb9-SS9wKCGx1-43" vertex="1">
          <mxGeometry y="40" width="60" height="20" as="geometry" />
        </mxCell>
        <mxCell id="JQwDpqhkxF0Kz64Juls8-3" value="&lt;font style=&quot;font-size: 6px;&quot;&gt;fk_time&lt;/font&gt;" style="text;strokeColor=none;fillColor=none;align=center;verticalAlign=middle;spacingLeft=4;spacingRight=4;overflow=hidden;points=[[0,0.5],[1,0.5]];portConstraint=eastwest;rotatable=0;whiteSpace=wrap;html=1;" parent="hAHwSwfUb9-SS9wKCGx1-43" vertex="1">
          <mxGeometry y="60" width="60" height="20" as="geometry" />
        </mxCell>
        <mxCell id="hAHwSwfUb9-SS9wKCGx1-47" value="&lt;font style=&quot;font-size: 7px;&quot;&gt;&lt;b style=&quot;font-size: 12px;&quot;&gt;&lt;font style=&quot;font-size: 6px;&quot;&gt;ft&lt;/font&gt;&lt;/b&gt;&lt;b&gt;_zetesTraceOrder&lt;/b&gt;&lt;/font&gt;" style="swimlane;fontStyle=0;childLayout=stackLayout;horizontal=1;startSize=20;horizontalStack=0;resizeParent=1;resizeParentMax=0;resizeLast=0;collapsible=1;marginBottom=0;whiteSpace=wrap;html=1;fillColor=#dae8fc;strokeColor=#6c8ebf;" parent="1" vertex="1">
          <mxGeometry x="483.5" y="350" width="60" height="60" as="geometry">
            <mxRectangle x="220" y="110" width="50" height="30" as="alternateBounds" />
          </mxGeometry>
        </mxCell>
        <mxCell id="hAHwSwfUb9-SS9wKCGx1-48" value="&lt;font style=&quot;font-size: 6px;&quot;&gt;&lt;b&gt;pk_zetesTraceOrder&lt;/b&gt;&lt;/font&gt;" style="text;strokeColor=none;fillColor=none;align=center;verticalAlign=middle;spacingLeft=4;spacingRight=4;overflow=hidden;points=[[0,0.5],[1,0.5]];portConstraint=eastwest;rotatable=0;whiteSpace=wrap;html=1;" parent="hAHwSwfUb9-SS9wKCGx1-47" vertex="1">
          <mxGeometry y="20" width="60" height="20" as="geometry" />
        </mxCell>
        <mxCell id="hAHwSwfUb9-SS9wKCGx1-50" value="&lt;font style=&quot;font-size: 6px;&quot;&gt;fk_order&lt;/font&gt;" style="text;strokeColor=none;fillColor=none;align=center;verticalAlign=middle;spacingLeft=4;spacingRight=4;overflow=hidden;points=[[0,0.5],[1,0.5]];portConstraint=eastwest;rotatable=0;whiteSpace=wrap;html=1;" parent="hAHwSwfUb9-SS9wKCGx1-47" vertex="1">
          <mxGeometry y="40" width="60" height="20" as="geometry" />
        </mxCell>
        <mxCell id="hAHwSwfUb9-SS9wKCGx1-52" value="&lt;b&gt;&lt;font style=&quot;font-size: 6px;&quot;&gt;ft&lt;/font&gt;&lt;/b&gt;&lt;font size=&quot;1&quot; style=&quot;&quot;&gt;&lt;b style=&quot;font-size: 5px;&quot;&gt;_traceLogistiqueOrder&lt;/b&gt;&lt;/font&gt;" style="swimlane;fontStyle=0;childLayout=stackLayout;horizontal=1;startSize=20;horizontalStack=0;resizeParent=1;resizeParentMax=0;resizeLast=0;collapsible=1;marginBottom=0;whiteSpace=wrap;html=1;fillColor=#dae8fc;strokeColor=#6c8ebf;" parent="1" vertex="1">
          <mxGeometry x="790" y="700" width="70" height="60" as="geometry">
            <mxRectangle x="220" y="110" width="50" height="30" as="alternateBounds" />
          </mxGeometry>
        </mxCell>
        <mxCell id="hAHwSwfUb9-SS9wKCGx1-53" value="&lt;font style=&quot;font-size: 6px;&quot;&gt;&lt;b&gt;pk_traceLogistiqueOrder&lt;/b&gt;&lt;/font&gt;" style="text;strokeColor=none;fillColor=none;align=center;verticalAlign=middle;spacingLeft=4;spacingRight=4;overflow=hidden;points=[[0,0.5],[1,0.5]];portConstraint=eastwest;rotatable=0;whiteSpace=wrap;html=1;" parent="hAHwSwfUb9-SS9wKCGx1-52" vertex="1">
          <mxGeometry y="20" width="70" height="20" as="geometry" />
        </mxCell>
        <mxCell id="hAHwSwfUb9-SS9wKCGx1-54" value="&lt;font style=&quot;font-size: 6px;&quot;&gt;fk_order&lt;/font&gt;" style="text;strokeColor=none;fillColor=none;align=center;verticalAlign=middle;spacingLeft=4;spacingRight=4;overflow=hidden;points=[[0,0.5],[1,0.5]];portConstraint=eastwest;rotatable=0;whiteSpace=wrap;html=1;" parent="hAHwSwfUb9-SS9wKCGx1-52" vertex="1">
          <mxGeometry y="40" width="70" height="20" as="geometry" />
        </mxCell>
        <mxCell id="hAHwSwfUb9-SS9wKCGx1-56" value="&lt;font style=&quot;font-size: 7px;&quot;&gt;&lt;b&gt;ft_auto_renews&lt;/b&gt;&lt;/font&gt;" style="swimlane;fontStyle=0;childLayout=stackLayout;horizontal=1;startSize=20;horizontalStack=0;resizeParent=1;resizeParentMax=0;resizeLast=0;collapsible=1;marginBottom=0;whiteSpace=wrap;html=1;fillColor=#dae8fc;strokeColor=#6c8ebf;" parent="1" vertex="1">
          <mxGeometry x="310.5" y="430" width="60" height="120" as="geometry">
            <mxRectangle x="220" y="110" width="50" height="30" as="alternateBounds" />
          </mxGeometry>
        </mxCell>
        <mxCell id="hAHwSwfUb9-SS9wKCGx1-57" value="&lt;font style=&quot;font-size: 6px;&quot;&gt;pk_autoRenews&lt;/font&gt;" style="text;strokeColor=none;fillColor=none;align=center;verticalAlign=middle;spacingLeft=4;spacingRight=4;overflow=hidden;points=[[0,0.5],[1,0.5]];portConstraint=eastwest;rotatable=0;whiteSpace=wrap;html=1;" parent="hAHwSwfUb9-SS9wKCGx1-56" vertex="1">
          <mxGeometry y="20" width="60" height="20" as="geometry" />
        </mxCell>
        <mxCell id="hAHwSwfUb9-SS9wKCGx1-58" value="&lt;font style=&quot;font-size: 6px;&quot;&gt;fk_client&lt;/font&gt;" style="text;strokeColor=none;fillColor=none;align=center;verticalAlign=middle;spacingLeft=4;spacingRight=4;overflow=hidden;points=[[0,0.5],[1,0.5]];portConstraint=eastwest;rotatable=0;whiteSpace=wrap;html=1;" parent="hAHwSwfUb9-SS9wKCGx1-56" vertex="1">
          <mxGeometry y="40" width="60" height="20" as="geometry" />
        </mxCell>
        <mxCell id="hAHwSwfUb9-SS9wKCGx1-59" value="&lt;font style=&quot;font-size: 6px;&quot;&gt;fk_order&lt;/font&gt;" style="text;strokeColor=none;fillColor=none;align=center;verticalAlign=middle;spacingLeft=4;spacingRight=4;overflow=hidden;points=[[0,0.5],[1,0.5]];portConstraint=eastwest;rotatable=0;whiteSpace=wrap;html=1;" parent="hAHwSwfUb9-SS9wKCGx1-56" vertex="1">
          <mxGeometry y="60" width="60" height="20" as="geometry" />
        </mxCell>
        <mxCell id="hAHwSwfUb9-SS9wKCGx1-60" value="&lt;font style=&quot;font-size: 6px;&quot;&gt;fk_billingAddress&lt;/font&gt;" style="text;strokeColor=none;fillColor=none;align=center;verticalAlign=middle;spacingLeft=4;spacingRight=4;overflow=hidden;points=[[0,0.5],[1,0.5]];portConstraint=eastwest;rotatable=0;whiteSpace=wrap;html=1;" parent="hAHwSwfUb9-SS9wKCGx1-56" vertex="1">
          <mxGeometry y="80" width="60" height="20" as="geometry" />
        </mxCell>
        <mxCell id="hAHwSwfUb9-SS9wKCGx1-61" value="&lt;font style=&quot;font-size: 6px;&quot;&gt;fk_shippingAddress&lt;/font&gt;" style="text;strokeColor=none;fillColor=none;align=center;verticalAlign=middle;spacingLeft=4;spacingRight=4;overflow=hidden;points=[[0,0.5],[1,0.5]];portConstraint=eastwest;rotatable=0;whiteSpace=wrap;html=1;" parent="hAHwSwfUb9-SS9wKCGx1-56" vertex="1">
          <mxGeometry y="100" width="60" height="20" as="geometry" />
        </mxCell>
        <mxCell id="hAHwSwfUb9-SS9wKCGx1-62" value="&lt;font style=&quot;font-size: 7px;&quot;&gt;&lt;b&gt;ft_voucher&lt;/b&gt;&lt;/font&gt;" style="swimlane;fontStyle=0;childLayout=stackLayout;horizontal=1;startSize=20;horizontalStack=0;resizeParent=1;resizeParentMax=0;resizeLast=0;collapsible=1;marginBottom=0;whiteSpace=wrap;html=1;fillColor=#0050ef;fontColor=#ffffff;strokeColor=#001DBC;" parent="1" vertex="1">
          <mxGeometry x="423.5" y="110" width="60" height="140" as="geometry">
            <mxRectangle x="220" y="110" width="50" height="30" as="alternateBounds" />
          </mxGeometry>
        </mxCell>
        <mxCell id="hAHwSwfUb9-SS9wKCGx1-63" value="&lt;font style=&quot;font-size: 6px;&quot;&gt;&lt;b&gt;pk_voucher&lt;/b&gt;&lt;/font&gt;" style="text;strokeColor=none;fillColor=none;align=center;verticalAlign=middle;spacingLeft=4;spacingRight=4;overflow=hidden;points=[[0,0.5],[1,0.5]];portConstraint=eastwest;rotatable=0;whiteSpace=wrap;html=1;" parent="hAHwSwfUb9-SS9wKCGx1-62" vertex="1">
          <mxGeometry y="20" width="60" height="20" as="geometry" />
        </mxCell>
        <mxCell id="hAHwSwfUb9-SS9wKCGx1-64" value="&lt;font style=&quot;font-size: 6px;&quot;&gt;fk_client&lt;/font&gt;" style="text;strokeColor=none;fillColor=none;align=center;verticalAlign=middle;spacingLeft=4;spacingRight=4;overflow=hidden;points=[[0,0.5],[1,0.5]];portConstraint=eastwest;rotatable=0;whiteSpace=wrap;html=1;" parent="hAHwSwfUb9-SS9wKCGx1-62" vertex="1">
          <mxGeometry y="40" width="60" height="20" as="geometry" />
        </mxCell>
        <mxCell id="hAHwSwfUb9-SS9wKCGx1-65" value="&lt;font style=&quot;font-size: 6px;&quot;&gt;fk_coupon&lt;/font&gt;" style="text;strokeColor=none;fillColor=none;align=center;verticalAlign=middle;spacingLeft=4;spacingRight=4;overflow=hidden;points=[[0,0.5],[1,0.5]];portConstraint=eastwest;rotatable=0;whiteSpace=wrap;html=1;" parent="hAHwSwfUb9-SS9wKCGx1-62" vertex="1">
          <mxGeometry y="60" width="60" height="20" as="geometry" />
        </mxCell>
        <mxCell id="hAHwSwfUb9-SS9wKCGx1-66" value="&lt;font style=&quot;font-size: 6px;&quot;&gt;fk_order&lt;/font&gt;" style="text;strokeColor=none;fillColor=none;align=center;verticalAlign=middle;spacingLeft=4;spacingRight=4;overflow=hidden;points=[[0,0.5],[1,0.5]];portConstraint=eastwest;rotatable=0;whiteSpace=wrap;html=1;" parent="hAHwSwfUb9-SS9wKCGx1-62" vertex="1">
          <mxGeometry y="80" width="60" height="20" as="geometry" />
        </mxCell>
        <mxCell id="hAHwSwfUb9-SS9wKCGx1-67" value="&lt;font style=&quot;font-size: 6px;&quot;&gt;fk_productOffer&lt;/font&gt;" style="text;strokeColor=none;fillColor=none;align=center;verticalAlign=middle;spacingLeft=4;spacingRight=4;overflow=hidden;points=[[0,0.5],[1,0.5]];portConstraint=eastwest;rotatable=0;whiteSpace=wrap;html=1;" parent="hAHwSwfUb9-SS9wKCGx1-62" vertex="1">
          <mxGeometry y="100" width="60" height="20" as="geometry" />
        </mxCell>
        <mxCell id="JQwDpqhkxF0Kz64Juls8-8" value="&lt;font style=&quot;font-size: 6px;&quot;&gt;fk_time&lt;/font&gt;" style="text;strokeColor=none;fillColor=none;align=center;verticalAlign=middle;spacingLeft=4;spacingRight=4;overflow=hidden;points=[[0,0.5],[1,0.5]];portConstraint=eastwest;rotatable=0;whiteSpace=wrap;html=1;" parent="hAHwSwfUb9-SS9wKCGx1-62" vertex="1">
          <mxGeometry y="120" width="60" height="20" as="geometry" />
        </mxCell>
        <mxCell id="hAHwSwfUb9-SS9wKCGx1-68" value="&lt;font style=&quot;font-size: 7px;&quot;&gt;&lt;b style=&quot;font-size: 12px;&quot;&gt;&lt;font style=&quot;font-size: 6px;&quot;&gt;ft&lt;/font&gt;&lt;/b&gt;&lt;b&gt;_originTracking&lt;/b&gt;&lt;/font&gt;" style="swimlane;fontStyle=0;childLayout=stackLayout;horizontal=1;startSize=20;horizontalStack=0;resizeParent=1;resizeParentMax=0;resizeLast=0;collapsible=1;marginBottom=0;whiteSpace=wrap;html=1;fillColor=#dae8fc;strokeColor=#6c8ebf;" parent="1" vertex="1">
          <mxGeometry x="507" y="640" width="60" height="80" as="geometry">
            <mxRectangle x="220" y="110" width="50" height="30" as="alternateBounds" />
          </mxGeometry>
        </mxCell>
        <mxCell id="hAHwSwfUb9-SS9wKCGx1-69" value="&lt;font style=&quot;font-size: 6px;&quot;&gt;&lt;b&gt;pk_originTracking&lt;/b&gt;&lt;/font&gt;" style="text;strokeColor=none;fillColor=none;align=center;verticalAlign=middle;spacingLeft=4;spacingRight=4;overflow=hidden;points=[[0,0.5],[1,0.5]];portConstraint=eastwest;rotatable=0;whiteSpace=wrap;html=1;" parent="hAHwSwfUb9-SS9wKCGx1-68" vertex="1">
          <mxGeometry y="20" width="60" height="20" as="geometry" />
        </mxCell>
        <mxCell id="hAHwSwfUb9-SS9wKCGx1-70" value="&lt;font style=&quot;font-size: 6px;&quot;&gt;fk_order&lt;/font&gt;" style="text;strokeColor=none;fillColor=none;align=center;verticalAlign=middle;spacingLeft=4;spacingRight=4;overflow=hidden;points=[[0,0.5],[1,0.5]];portConstraint=eastwest;rotatable=0;whiteSpace=wrap;html=1;" parent="hAHwSwfUb9-SS9wKCGx1-68" vertex="1">
          <mxGeometry y="40" width="60" height="20" as="geometry" />
        </mxCell>
        <mxCell id="hAHwSwfUb9-SS9wKCGx1-71" value="&lt;font style=&quot;font-size: 6px;&quot;&gt;fk_client&lt;/font&gt;" style="text;strokeColor=none;fillColor=none;align=center;verticalAlign=middle;spacingLeft=4;spacingRight=4;overflow=hidden;points=[[0,0.5],[1,0.5]];portConstraint=eastwest;rotatable=0;whiteSpace=wrap;html=1;" parent="hAHwSwfUb9-SS9wKCGx1-68" vertex="1">
          <mxGeometry y="60" width="60" height="20" as="geometry" />
        </mxCell>
        <mxCell id="hAHwSwfUb9-SS9wKCGx1-72" value="&lt;font size=&quot;1&quot; style=&quot;&quot;&gt;&lt;b style=&quot;font-size: 6px;&quot;&gt;dm_shoppingcartTracking&lt;/b&gt;&lt;/font&gt;" style="swimlane;fontStyle=0;childLayout=stackLayout;horizontal=1;startSize=20;horizontalStack=0;resizeParent=1;resizeParentMax=0;resizeLast=0;collapsible=1;marginBottom=0;whiteSpace=wrap;html=1;fillColor=#60a917;fontColor=#ffffff;strokeColor=#2D7600;" parent="1" vertex="1">
          <mxGeometry x="370" y="770" width="74" height="80" as="geometry">
            <mxRectangle x="220" y="110" width="50" height="30" as="alternateBounds" />
          </mxGeometry>
        </mxCell>
        <mxCell id="hAHwSwfUb9-SS9wKCGx1-73" value="&lt;font style=&quot;font-size: 6px;&quot;&gt;pk_shoppingcartTracking&lt;/font&gt;" style="text;strokeColor=none;fillColor=none;align=center;verticalAlign=middle;spacingLeft=4;spacingRight=4;overflow=hidden;points=[[0,0.5],[1,0.5]];portConstraint=eastwest;rotatable=0;whiteSpace=wrap;html=1;" parent="hAHwSwfUb9-SS9wKCGx1-72" vertex="1">
          <mxGeometry y="20" width="74" height="20" as="geometry" />
        </mxCell>
        <mxCell id="hAHwSwfUb9-SS9wKCGx1-74" value="&lt;font style=&quot;font-size: 6px;&quot;&gt;fk_client&lt;/font&gt;" style="text;strokeColor=none;fillColor=none;align=center;verticalAlign=middle;spacingLeft=4;spacingRight=4;overflow=hidden;points=[[0,0.5],[1,0.5]];portConstraint=eastwest;rotatable=0;whiteSpace=wrap;html=1;" parent="hAHwSwfUb9-SS9wKCGx1-72" vertex="1">
          <mxGeometry y="40" width="74" height="20" as="geometry" />
        </mxCell>
        <mxCell id="hAHwSwfUb9-SS9wKCGx1-75" value="&lt;font style=&quot;font-size: 6px;&quot;&gt;fk_order&lt;/font&gt;" style="text;strokeColor=none;fillColor=none;align=center;verticalAlign=middle;spacingLeft=4;spacingRight=4;overflow=hidden;points=[[0,0.5],[1,0.5]];portConstraint=eastwest;rotatable=0;whiteSpace=wrap;html=1;" parent="hAHwSwfUb9-SS9wKCGx1-72" vertex="1">
          <mxGeometry y="60" width="74" height="20" as="geometry" />
        </mxCell>
        <mxCell id="hAHwSwfUb9-SS9wKCGx1-76" value="&lt;font size=&quot;1&quot; style=&quot;&quot;&gt;&lt;b style=&quot;font-size: 7px;&quot;&gt;ft_order&lt;/b&gt;&lt;/font&gt;" style="swimlane;fontStyle=0;childLayout=stackLayout;horizontal=1;startSize=20;horizontalStack=0;resizeParent=1;resizeParentMax=0;resizeLast=0;collapsible=1;marginBottom=0;whiteSpace=wrap;html=1;fillColor=#0050ef;fontColor=#ffffff;strokeColor=#001DBC;" parent="1" vertex="1">
          <mxGeometry x="250.5" y="600" width="60" height="120" as="geometry">
            <mxRectangle x="220" y="110" width="50" height="30" as="alternateBounds" />
          </mxGeometry>
        </mxCell>
        <mxCell id="hAHwSwfUb9-SS9wKCGx1-77" value="&lt;font style=&quot;font-size: 6px;&quot;&gt;&lt;b&gt;pk_order&lt;/b&gt;&lt;/font&gt;" style="text;strokeColor=none;fillColor=none;align=center;verticalAlign=middle;spacingLeft=4;spacingRight=4;overflow=hidden;points=[[0,0.5],[1,0.5]];portConstraint=eastwest;rotatable=0;whiteSpace=wrap;html=1;" parent="hAHwSwfUb9-SS9wKCGx1-76" vertex="1">
          <mxGeometry y="20" width="60" height="20" as="geometry" />
        </mxCell>
        <mxCell id="hAHwSwfUb9-SS9wKCGx1-78" value="&lt;font style=&quot;font-size: 6px;&quot;&gt;fk_client&lt;/font&gt;" style="text;strokeColor=none;fillColor=none;align=center;verticalAlign=middle;spacingLeft=4;spacingRight=4;overflow=hidden;points=[[0,0.5],[1,0.5]];portConstraint=eastwest;rotatable=0;whiteSpace=wrap;html=1;" parent="hAHwSwfUb9-SS9wKCGx1-76" vertex="1">
          <mxGeometry y="40" width="60" height="20" as="geometry" />
        </mxCell>
        <mxCell id="JQwDpqhkxF0Kz64Juls8-10" value="&lt;font style=&quot;font-size: 6px;&quot;&gt;fk_time&lt;/font&gt;" style="text;strokeColor=none;fillColor=none;align=center;verticalAlign=middle;spacingLeft=4;spacingRight=4;overflow=hidden;points=[[0,0.5],[1,0.5]];portConstraint=eastwest;rotatable=0;whiteSpace=wrap;html=1;" parent="hAHwSwfUb9-SS9wKCGx1-76" vertex="1">
          <mxGeometry y="60" width="60" height="20" as="geometry" />
        </mxCell>
        <mxCell id="hAHwSwfUb9-SS9wKCGx1-79" value="&lt;font style=&quot;font-size: 6px;&quot;&gt;fk_billingAddress&lt;/font&gt;" style="text;strokeColor=none;fillColor=none;align=center;verticalAlign=middle;spacingLeft=4;spacingRight=4;overflow=hidden;points=[[0,0.5],[1,0.5]];portConstraint=eastwest;rotatable=0;whiteSpace=wrap;html=1;" parent="hAHwSwfUb9-SS9wKCGx1-76" vertex="1">
          <mxGeometry y="80" width="60" height="20" as="geometry" />
        </mxCell>
        <mxCell id="hAHwSwfUb9-SS9wKCGx1-80" value="&lt;font style=&quot;font-size: 6px;&quot;&gt;fk_shippingAddress&lt;/font&gt;" style="text;strokeColor=none;fillColor=none;align=center;verticalAlign=middle;spacingLeft=4;spacingRight=4;overflow=hidden;points=[[0,0.5],[1,0.5]];portConstraint=eastwest;rotatable=0;whiteSpace=wrap;html=1;" parent="hAHwSwfUb9-SS9wKCGx1-76" vertex="1">
          <mxGeometry y="100" width="60" height="20" as="geometry" />
        </mxCell>
        <mxCell id="hAHwSwfUb9-SS9wKCGx1-81" value="" style="endArrow=none;html=1;rounded=0;entryX=0.75;entryY=0;entryDx=0;entryDy=0;endFill=0;" parent="1" source="hAHwSwfUb9-SS9wKCGx1-76" target="hAHwSwfUb9-SS9wKCGx1-72" edge="1">
          <mxGeometry relative="1" as="geometry">
            <mxPoint x="220" y="690" as="sourcePoint" />
            <mxPoint x="380" y="690" as="targetPoint" />
            <Array as="points">
              <mxPoint x="430" y="680" />
            </Array>
          </mxGeometry>
        </mxCell>
        <mxCell id="hAHwSwfUb9-SS9wKCGx1-83" value="1" style="edgeLabel;resizable=0;html=1;align=left;verticalAlign=bottom;" parent="hAHwSwfUb9-SS9wKCGx1-81" connectable="0" vertex="1">
          <mxGeometry x="-1" relative="1" as="geometry">
            <mxPoint x="-18" y="17" as="offset" />
          </mxGeometry>
        </mxCell>
        <mxCell id="hAHwSwfUb9-SS9wKCGx1-84" value="N" style="edgeLabel;resizable=0;html=1;align=right;verticalAlign=bottom;" parent="hAHwSwfUb9-SS9wKCGx1-81" connectable="0" vertex="1">
          <mxGeometry x="1" relative="1" as="geometry">
            <mxPoint x="4" y="-3" as="offset" />
          </mxGeometry>
        </mxCell>
        <mxCell id="hAHwSwfUb9-SS9wKCGx1-85" value="" style="endArrow=none;html=1;rounded=0;endFill=0;entryX=0.344;entryY=-0.006;entryDx=0;entryDy=0;entryPerimeter=0;" parent="1" source="MuI_MBfWIwYMxkX0AhXJ-9" target="hAHwSwfUb9-SS9wKCGx1-22" edge="1">
          <mxGeometry relative="1" as="geometry">
            <mxPoint x="230" y="690" as="sourcePoint" />
            <mxPoint x="380" y="690" as="targetPoint" />
            <Array as="points" />
          </mxGeometry>
        </mxCell>
        <mxCell id="hAHwSwfUb9-SS9wKCGx1-87" value="1" style="edgeLabel;resizable=0;html=1;align=left;verticalAlign=bottom;" parent="hAHwSwfUb9-SS9wKCGx1-85" connectable="0" vertex="1">
          <mxGeometry x="-1" relative="1" as="geometry">
            <mxPoint y="19" as="offset" />
          </mxGeometry>
        </mxCell>
        <mxCell id="hAHwSwfUb9-SS9wKCGx1-88" value="N" style="edgeLabel;resizable=0;html=1;align=right;verticalAlign=bottom;" parent="hAHwSwfUb9-SS9wKCGx1-85" connectable="0" vertex="1">
          <mxGeometry x="1" relative="1" as="geometry">
            <mxPoint x="-12" as="offset" />
          </mxGeometry>
        </mxCell>
        <mxCell id="hAHwSwfUb9-SS9wKCGx1-89" value="" style="endArrow=none;html=1;rounded=0;endFill=0;entryX=0.02;entryY=0.937;entryDx=0;entryDy=0;entryPerimeter=0;" parent="1" source="MuI_MBfWIwYMxkX0AhXJ-9" target="hAHwSwfUb9-SS9wKCGx1-11" edge="1">
          <mxGeometry relative="1" as="geometry">
            <mxPoint x="330" y="580" as="sourcePoint" />
            <mxPoint x="500" y="610" as="targetPoint" />
          </mxGeometry>
        </mxCell>
        <mxCell id="hAHwSwfUb9-SS9wKCGx1-91" value="1" style="edgeLabel;resizable=0;html=1;align=left;verticalAlign=bottom;" parent="hAHwSwfUb9-SS9wKCGx1-89" connectable="0" vertex="1">
          <mxGeometry x="-1" relative="1" as="geometry" />
        </mxCell>
        <mxCell id="hAHwSwfUb9-SS9wKCGx1-92" value="N" style="edgeLabel;resizable=0;html=1;align=right;verticalAlign=bottom;" parent="hAHwSwfUb9-SS9wKCGx1-89" connectable="0" vertex="1">
          <mxGeometry x="1" relative="1" as="geometry">
            <mxPoint x="-4" y="7" as="offset" />
          </mxGeometry>
        </mxCell>
        <mxCell id="hAHwSwfUb9-SS9wKCGx1-97" value="" style="endArrow=none;html=1;rounded=0;endFill=0;" parent="1" source="hAHwSwfUb9-SS9wKCGx1-43" target="MuI_MBfWIwYMxkX0AhXJ-9" edge="1">
          <mxGeometry relative="1" as="geometry">
            <mxPoint x="422.03999999999996" y="444" as="sourcePoint" />
            <mxPoint x="430" y="560" as="targetPoint" />
            <Array as="points" />
          </mxGeometry>
        </mxCell>
        <mxCell id="hAHwSwfUb9-SS9wKCGx1-99" value="N" style="edgeLabel;resizable=0;html=1;align=left;verticalAlign=bottom;" parent="hAHwSwfUb9-SS9wKCGx1-97" connectable="0" vertex="1">
          <mxGeometry x="-1" relative="1" as="geometry">
            <mxPoint x="-4" y="20" as="offset" />
          </mxGeometry>
        </mxCell>
        <mxCell id="hAHwSwfUb9-SS9wKCGx1-100" value="1" style="edgeLabel;resizable=0;html=1;align=right;verticalAlign=bottom;" parent="hAHwSwfUb9-SS9wKCGx1-97" connectable="0" vertex="1">
          <mxGeometry x="1" relative="1" as="geometry" />
        </mxCell>
        <mxCell id="hAHwSwfUb9-SS9wKCGx1-101" value="" style="endArrow=none;html=1;rounded=0;endFill=0;" parent="1" source="hAHwSwfUb9-SS9wKCGx1-13" target="MuI_MBfWIwYMxkX0AhXJ-9" edge="1">
          <mxGeometry relative="1" as="geometry">
            <mxPoint x="503.69900000000007" y="330.26" as="sourcePoint" />
            <mxPoint x="450" y="560" as="targetPoint" />
          </mxGeometry>
        </mxCell>
        <mxCell id="hAHwSwfUb9-SS9wKCGx1-103" value="N" style="edgeLabel;resizable=0;html=1;align=left;verticalAlign=bottom;" parent="hAHwSwfUb9-SS9wKCGx1-101" connectable="0" vertex="1">
          <mxGeometry x="-1" relative="1" as="geometry">
            <mxPoint x="-10" y="21" as="offset" />
          </mxGeometry>
        </mxCell>
        <mxCell id="hAHwSwfUb9-SS9wKCGx1-104" value="1" style="edgeLabel;resizable=0;html=1;align=right;verticalAlign=bottom;" parent="hAHwSwfUb9-SS9wKCGx1-101" connectable="0" vertex="1">
          <mxGeometry x="1" relative="1" as="geometry">
            <mxPoint x="6" y="-3" as="offset" />
          </mxGeometry>
        </mxCell>
        <mxCell id="hAHwSwfUb9-SS9wKCGx1-110" value="" style="endArrow=none;html=1;rounded=0;endFill=0;" parent="1" source="hAHwSwfUb9-SS9wKCGx1-62" target="MuI_MBfWIwYMxkX0AhXJ-9" edge="1">
          <mxGeometry relative="1" as="geometry">
            <mxPoint x="226.5" y="620" as="sourcePoint" />
            <mxPoint x="410" y="620" as="targetPoint" />
          </mxGeometry>
        </mxCell>
        <mxCell id="hAHwSwfUb9-SS9wKCGx1-112" value="N" style="edgeLabel;resizable=0;html=1;align=left;verticalAlign=bottom;" parent="hAHwSwfUb9-SS9wKCGx1-110" connectable="0" vertex="1">
          <mxGeometry x="-1" relative="1" as="geometry" />
        </mxCell>
        <mxCell id="hAHwSwfUb9-SS9wKCGx1-113" value="1" style="edgeLabel;resizable=0;html=1;align=right;verticalAlign=bottom;" parent="hAHwSwfUb9-SS9wKCGx1-110" connectable="0" vertex="1">
          <mxGeometry x="1" relative="1" as="geometry" />
        </mxCell>
        <mxCell id="hAHwSwfUb9-SS9wKCGx1-114" value="&lt;font style=&quot;font-size: 7px;&quot;&gt;&lt;b&gt;dm_client&lt;/b&gt;&lt;/font&gt;" style="swimlane;fontStyle=0;childLayout=stackLayout;horizontal=1;startSize=20;horizontalStack=0;resizeParent=1;resizeParentMax=0;resizeLast=0;collapsible=1;marginBottom=0;whiteSpace=wrap;html=1;fillColor=#60a917;fontColor=#ffffff;strokeColor=#2D7600;" parent="1" vertex="1">
          <mxGeometry x="-180" y="560" width="120" height="80" as="geometry">
            <mxRectangle x="220" y="110" width="50" height="30" as="alternateBounds" />
          </mxGeometry>
        </mxCell>
        <mxCell id="hAHwSwfUb9-SS9wKCGx1-115" value="&lt;font size=&quot;1&quot; style=&quot;&quot;&gt;&lt;b style=&quot;font-size: 7px;&quot;&gt;pk_client&lt;/b&gt;&lt;/font&gt;" style="text;strokeColor=none;fillColor=none;align=center;verticalAlign=middle;spacingLeft=4;spacingRight=4;overflow=hidden;points=[[0,0.5],[1,0.5]];portConstraint=eastwest;rotatable=0;whiteSpace=wrap;html=1;" parent="hAHwSwfUb9-SS9wKCGx1-114" vertex="1">
          <mxGeometry y="20" width="120" height="20" as="geometry" />
        </mxCell>
        <mxCell id="hAHwSwfUb9-SS9wKCGx1-116" value="&lt;font style=&quot;font-size: 6px;&quot;&gt;fk_defaultBillingAddress&lt;/font&gt;" style="text;strokeColor=none;fillColor=none;align=center;verticalAlign=middle;spacingLeft=4;spacingRight=4;overflow=hidden;points=[[0,0.5],[1,0.5]];portConstraint=eastwest;rotatable=0;whiteSpace=wrap;html=1;" parent="hAHwSwfUb9-SS9wKCGx1-114" vertex="1">
          <mxGeometry y="40" width="120" height="20" as="geometry" />
        </mxCell>
        <mxCell id="hAHwSwfUb9-SS9wKCGx1-117" value="&lt;font style=&quot;font-size: 6px;&quot;&gt;fk_defaultShippingAddress&lt;/font&gt;" style="text;strokeColor=none;fillColor=none;align=center;verticalAlign=middle;spacingLeft=4;spacingRight=4;overflow=hidden;points=[[0,0.5],[1,0.5]];portConstraint=eastwest;rotatable=0;whiteSpace=wrap;html=1;" parent="hAHwSwfUb9-SS9wKCGx1-114" vertex="1">
          <mxGeometry y="60" width="120" height="20" as="geometry" />
        </mxCell>
        <mxCell id="hAHwSwfUb9-SS9wKCGx1-120" value="" style="endArrow=none;html=1;rounded=0;entryX=0.5;entryY=0;entryDx=0;entryDy=0;endFill=0;" parent="1" source="hAHwSwfUb9-SS9wKCGx1-17" target="MuI_MBfWIwYMxkX0AhXJ-9" edge="1">
          <mxGeometry relative="1" as="geometry">
            <mxPoint x="250" y="410" as="sourcePoint" />
            <mxPoint x="404.75" y="400" as="targetPoint" />
            <Array as="points">
              <mxPoint x="360" y="980" />
            </Array>
          </mxGeometry>
        </mxCell>
        <mxCell id="hAHwSwfUb9-SS9wKCGx1-122" value="N" style="edgeLabel;resizable=0;html=1;align=left;verticalAlign=bottom;" parent="hAHwSwfUb9-SS9wKCGx1-120" connectable="0" vertex="1">
          <mxGeometry x="-1" relative="1" as="geometry" />
        </mxCell>
        <mxCell id="hAHwSwfUb9-SS9wKCGx1-123" value="1" style="edgeLabel;resizable=0;html=1;align=right;verticalAlign=bottom;" parent="hAHwSwfUb9-SS9wKCGx1-120" connectable="0" vertex="1">
          <mxGeometry x="1" relative="1" as="geometry">
            <mxPoint x="10" y="15" as="offset" />
          </mxGeometry>
        </mxCell>
        <mxCell id="hAHwSwfUb9-SS9wKCGx1-128" value="" style="endArrow=none;html=1;rounded=0;endFill=0;" parent="1" source="hAHwSwfUb9-SS9wKCGx1-68" target="MuI_MBfWIwYMxkX0AhXJ-9" edge="1">
          <mxGeometry relative="1" as="geometry">
            <mxPoint x="150" y="530" as="sourcePoint" />
            <mxPoint x="410" y="570" as="targetPoint" />
            <Array as="points">
              <mxPoint x="670" y="610" />
            </Array>
          </mxGeometry>
        </mxCell>
        <mxCell id="hAHwSwfUb9-SS9wKCGx1-130" value="N" style="edgeLabel;resizable=0;html=1;align=left;verticalAlign=bottom;" parent="hAHwSwfUb9-SS9wKCGx1-128" connectable="0" vertex="1">
          <mxGeometry x="-1" relative="1" as="geometry" />
        </mxCell>
        <mxCell id="hAHwSwfUb9-SS9wKCGx1-131" value="1" style="edgeLabel;resizable=0;html=1;align=right;verticalAlign=bottom;" parent="hAHwSwfUb9-SS9wKCGx1-128" connectable="0" vertex="1">
          <mxGeometry x="1" relative="1" as="geometry">
            <mxPoint x="-10" as="offset" />
          </mxGeometry>
        </mxCell>
        <mxCell id="hAHwSwfUb9-SS9wKCGx1-136" value="" style="endArrow=none;html=1;rounded=0;endFill=0;exitX=1.029;exitY=0;exitDx=0;exitDy=0;exitPerimeter=0;" parent="1" source="hAHwSwfUb9-SS9wKCGx1-28" target="hAHwSwfUb9-SS9wKCGx1-76" edge="1">
          <mxGeometry relative="1" as="geometry">
            <mxPoint x="140" y="361" as="sourcePoint" />
            <mxPoint x="413.52" y="560" as="targetPoint" />
            <Array as="points">
              <mxPoint x="160" y="430" />
              <mxPoint x="260" y="510" />
            </Array>
          </mxGeometry>
        </mxCell>
        <mxCell id="hAHwSwfUb9-SS9wKCGx1-138" value="1" style="edgeLabel;resizable=0;html=1;align=left;verticalAlign=bottom;" parent="hAHwSwfUb9-SS9wKCGx1-136" connectable="0" vertex="1">
          <mxGeometry x="-1" relative="1" as="geometry" />
        </mxCell>
        <mxCell id="hAHwSwfUb9-SS9wKCGx1-139" value="1" style="edgeLabel;resizable=0;html=1;align=right;verticalAlign=bottom;" parent="hAHwSwfUb9-SS9wKCGx1-136" connectable="0" vertex="1">
          <mxGeometry x="1" relative="1" as="geometry" />
        </mxCell>
        <mxCell id="hAHwSwfUb9-SS9wKCGx1-144" value="&lt;font style=&quot;font-size: 7px;&quot;&gt;&lt;b&gt;dm_address&lt;/b&gt;&lt;/font&gt;" style="swimlane;fontStyle=0;childLayout=stackLayout;horizontal=1;startSize=20;horizontalStack=0;resizeParent=1;resizeParentMax=0;resizeLast=0;collapsible=1;marginBottom=0;whiteSpace=wrap;html=1;fillColor=#60a917;fontColor=#ffffff;strokeColor=#2D7600;" parent="1" vertex="1">
          <mxGeometry x="10" y="730" width="60" height="60" as="geometry">
            <mxRectangle x="220" y="110" width="50" height="30" as="alternateBounds" />
          </mxGeometry>
        </mxCell>
        <mxCell id="hAHwSwfUb9-SS9wKCGx1-145" value="&lt;font style=&quot;font-size: 6px;&quot;&gt;&lt;b&gt;pk_address&lt;/b&gt;&lt;/font&gt;" style="text;strokeColor=none;fillColor=none;align=center;verticalAlign=middle;spacingLeft=4;spacingRight=4;overflow=hidden;points=[[0,0.5],[1,0.5]];portConstraint=eastwest;rotatable=0;whiteSpace=wrap;html=1;" parent="hAHwSwfUb9-SS9wKCGx1-144" vertex="1">
          <mxGeometry y="20" width="60" height="20" as="geometry" />
        </mxCell>
        <mxCell id="hAHwSwfUb9-SS9wKCGx1-146" value="&lt;font style=&quot;font-size: 6px;&quot;&gt;fk_client&lt;/font&gt;" style="text;strokeColor=none;fillColor=none;align=center;verticalAlign=middle;spacingLeft=4;spacingRight=4;overflow=hidden;points=[[0,0.5],[1,0.5]];portConstraint=eastwest;rotatable=0;whiteSpace=wrap;html=1;" parent="hAHwSwfUb9-SS9wKCGx1-144" vertex="1">
          <mxGeometry y="40" width="60" height="20" as="geometry" />
        </mxCell>
        <mxCell id="hAHwSwfUb9-SS9wKCGx1-160" value="" style="endArrow=none;html=1;rounded=0;endFill=0;" parent="1" source="hAHwSwfUb9-SS9wKCGx1-56" target="MuI_MBfWIwYMxkX0AhXJ-9" edge="1">
          <mxGeometry relative="1" as="geometry">
            <mxPoint x="40" y="690" as="sourcePoint" />
            <mxPoint x="200" y="690" as="targetPoint" />
            <Array as="points">
              <mxPoint x="430" y="510" />
            </Array>
          </mxGeometry>
        </mxCell>
        <mxCell id="hAHwSwfUb9-SS9wKCGx1-162" value="N" style="edgeLabel;resizable=0;html=1;align=left;verticalAlign=bottom;" parent="hAHwSwfUb9-SS9wKCGx1-160" connectable="0" vertex="1">
          <mxGeometry x="-1" relative="1" as="geometry" />
        </mxCell>
        <mxCell id="hAHwSwfUb9-SS9wKCGx1-164" value="" style="endArrow=none;html=1;rounded=0;endFill=0;" parent="1" source="hAHwSwfUb9-SS9wKCGx1-114" target="hAHwSwfUb9-SS9wKCGx1-76" edge="1">
          <mxGeometry relative="1" as="geometry">
            <mxPoint x="-10" y="730" as="sourcePoint" />
            <mxPoint x="150" y="730" as="targetPoint" />
            <Array as="points" />
          </mxGeometry>
        </mxCell>
        <mxCell id="hAHwSwfUb9-SS9wKCGx1-166" value="1" style="edgeLabel;resizable=0;html=1;align=left;verticalAlign=bottom;" parent="hAHwSwfUb9-SS9wKCGx1-164" connectable="0" vertex="1">
          <mxGeometry x="-1" relative="1" as="geometry">
            <mxPoint y="19" as="offset" />
          </mxGeometry>
        </mxCell>
        <mxCell id="hAHwSwfUb9-SS9wKCGx1-167" value="N" style="edgeLabel;resizable=0;html=1;align=right;verticalAlign=bottom;" parent="hAHwSwfUb9-SS9wKCGx1-164" connectable="0" vertex="1">
          <mxGeometry x="1" relative="1" as="geometry">
            <mxPoint x="1" y="20" as="offset" />
          </mxGeometry>
        </mxCell>
        <mxCell id="hAHwSwfUb9-SS9wKCGx1-168" value="" style="endArrow=none;html=1;rounded=0;endFill=0;" parent="1" source="MuI_MBfWIwYMxkX0AhXJ-9" target="hAHwSwfUb9-SS9wKCGx1-1" edge="1">
          <mxGeometry relative="1" as="geometry">
            <mxPoint x="390" y="400" as="sourcePoint" />
            <mxPoint x="612.3130000000001" y="441.5" as="targetPoint" />
            <Array as="points" />
          </mxGeometry>
        </mxCell>
        <mxCell id="hAHwSwfUb9-SS9wKCGx1-170" value="1" style="edgeLabel;resizable=0;html=1;align=left;verticalAlign=bottom;" parent="hAHwSwfUb9-SS9wKCGx1-168" connectable="0" vertex="1">
          <mxGeometry x="-1" relative="1" as="geometry" />
        </mxCell>
        <mxCell id="hAHwSwfUb9-SS9wKCGx1-171" value="N" style="edgeLabel;resizable=0;html=1;align=right;verticalAlign=bottom;" parent="hAHwSwfUb9-SS9wKCGx1-168" connectable="0" vertex="1">
          <mxGeometry x="1" relative="1" as="geometry">
            <mxPoint x="-12" y="16" as="offset" />
          </mxGeometry>
        </mxCell>
        <mxCell id="hAHwSwfUb9-SS9wKCGx1-172" value="" style="endArrow=none;html=1;rounded=0;endFill=0;" parent="1" source="MuI_MBfWIwYMxkX0AhXJ-9" target="hAHwSwfUb9-SS9wKCGx1-47" edge="1">
          <mxGeometry relative="1" as="geometry">
            <mxPoint x="540" y="480" as="sourcePoint" />
            <mxPoint x="690" y="480" as="targetPoint" />
            <Array as="points" />
          </mxGeometry>
        </mxCell>
        <mxCell id="hAHwSwfUb9-SS9wKCGx1-174" value="1" style="edgeLabel;resizable=0;html=1;align=left;verticalAlign=bottom;" parent="hAHwSwfUb9-SS9wKCGx1-172" connectable="0" vertex="1">
          <mxGeometry x="-1" relative="1" as="geometry" />
        </mxCell>
        <mxCell id="hAHwSwfUb9-SS9wKCGx1-175" value="N" style="edgeLabel;resizable=0;html=1;align=right;verticalAlign=bottom;" parent="hAHwSwfUb9-SS9wKCGx1-172" connectable="0" vertex="1">
          <mxGeometry x="1" relative="1" as="geometry" />
        </mxCell>
        <mxCell id="hAHwSwfUb9-SS9wKCGx1-176" value="" style="endArrow=none;html=1;rounded=0;entryX=0.25;entryY=0;entryDx=0;entryDy=0;endFill=0;" parent="1" source="MuI_MBfWIwYMxkX0AhXJ-9" target="hAHwSwfUb9-SS9wKCGx1-52" edge="1">
          <mxGeometry relative="1" as="geometry">
            <mxPoint x="470" y="700" as="sourcePoint" />
            <mxPoint x="630" y="700" as="targetPoint" />
            <Array as="points" />
          </mxGeometry>
        </mxCell>
        <mxCell id="hAHwSwfUb9-SS9wKCGx1-178" value="1" style="edgeLabel;resizable=0;html=1;align=left;verticalAlign=bottom;" parent="hAHwSwfUb9-SS9wKCGx1-176" connectable="0" vertex="1">
          <mxGeometry x="-1" relative="1" as="geometry" />
        </mxCell>
        <mxCell id="hAHwSwfUb9-SS9wKCGx1-179" value="N" style="edgeLabel;resizable=0;html=1;align=right;verticalAlign=bottom;" parent="hAHwSwfUb9-SS9wKCGx1-176" connectable="0" vertex="1">
          <mxGeometry x="1" relative="1" as="geometry" />
        </mxCell>
        <mxCell id="hAHwSwfUb9-SS9wKCGx1-180" value="" style="endArrow=none;html=1;rounded=0;endFill=0;" parent="1" source="MuI_MBfWIwYMxkX0AhXJ-9" target="hAHwSwfUb9-SS9wKCGx1-5" edge="1">
          <mxGeometry relative="1" as="geometry">
            <mxPoint x="470" y="700" as="sourcePoint" />
            <mxPoint x="670" y="630" as="targetPoint" />
            <Array as="points">
              <mxPoint x="850" y="570" />
            </Array>
          </mxGeometry>
        </mxCell>
        <mxCell id="hAHwSwfUb9-SS9wKCGx1-182" value="1" style="edgeLabel;resizable=0;html=1;align=left;verticalAlign=bottom;" parent="hAHwSwfUb9-SS9wKCGx1-180" connectable="0" vertex="1">
          <mxGeometry x="-1" relative="1" as="geometry">
            <mxPoint as="offset" />
          </mxGeometry>
        </mxCell>
        <mxCell id="hAHwSwfUb9-SS9wKCGx1-183" value="N" style="edgeLabel;resizable=0;html=1;align=right;verticalAlign=bottom;" parent="hAHwSwfUb9-SS9wKCGx1-180" connectable="0" vertex="1">
          <mxGeometry x="1" relative="1" as="geometry" />
        </mxCell>
        <mxCell id="hAHwSwfUb9-SS9wKCGx1-188" value="&lt;font style=&quot;font-size: 7px;&quot;&gt;&lt;b&gt;dm_product&lt;/b&gt;&lt;/font&gt;" style="swimlane;fontStyle=0;childLayout=stackLayout;horizontal=1;startSize=20;horizontalStack=0;resizeParent=1;resizeParentMax=0;resizeLast=0;collapsible=1;marginBottom=0;whiteSpace=wrap;html=1;fillColor=#60a917;fontColor=#ffffff;strokeColor=#2D7600;" parent="1" vertex="1">
          <mxGeometry x="680" y="1140" width="120" height="100" as="geometry">
            <mxRectangle x="220" y="110" width="50" height="30" as="alternateBounds" />
          </mxGeometry>
        </mxCell>
        <mxCell id="hAHwSwfUb9-SS9wKCGx1-189" value="&lt;font style=&quot;font-size: 6px;&quot;&gt;pk_product&lt;/font&gt;" style="text;strokeColor=none;fillColor=none;align=center;verticalAlign=middle;spacingLeft=4;spacingRight=4;overflow=hidden;points=[[0,0.5],[1,0.5]];portConstraint=eastwest;rotatable=0;whiteSpace=wrap;html=1;fontStyle=1" parent="hAHwSwfUb9-SS9wKCGx1-188" vertex="1">
          <mxGeometry y="20" width="120" height="20" as="geometry" />
        </mxCell>
        <mxCell id="hAHwSwfUb9-SS9wKCGx1-190" value="&lt;font style=&quot;font-size: 6px;&quot;&gt;fk_supplier&lt;/font&gt;" style="text;strokeColor=none;fillColor=none;align=center;verticalAlign=middle;spacingLeft=4;spacingRight=4;overflow=hidden;points=[[0,0.5],[1,0.5]];portConstraint=eastwest;rotatable=0;whiteSpace=wrap;html=1;" parent="hAHwSwfUb9-SS9wKCGx1-188" vertex="1">
          <mxGeometry y="40" width="120" height="20" as="geometry" />
        </mxCell>
        <mxCell id="hAHwSwfUb9-SS9wKCGx1-191" value="&lt;font style=&quot;font-size: 6px;&quot;&gt;fk_productCharacteristics&lt;/font&gt;" style="text;strokeColor=none;fillColor=none;align=center;verticalAlign=middle;spacingLeft=4;spacingRight=4;overflow=hidden;points=[[0,0.5],[1,0.5]];portConstraint=eastwest;rotatable=0;whiteSpace=wrap;html=1;" parent="hAHwSwfUb9-SS9wKCGx1-188" vertex="1">
          <mxGeometry y="60" width="120" height="20" as="geometry" />
        </mxCell>
        <mxCell id="MuI_MBfWIwYMxkX0AhXJ-17" value="&lt;span style=&quot;font-size: 6px;&quot;&gt;fk_productDetailSolution&lt;/span&gt;" style="text;strokeColor=none;fillColor=none;align=center;verticalAlign=middle;spacingLeft=4;spacingRight=4;overflow=hidden;points=[[0,0.5],[1,0.5]];portConstraint=eastwest;rotatable=0;whiteSpace=wrap;html=1;" parent="hAHwSwfUb9-SS9wKCGx1-188" vertex="1">
          <mxGeometry y="80" width="120" height="20" as="geometry" />
        </mxCell>
        <mxCell id="hAHwSwfUb9-SS9wKCGx1-192" value="&lt;b style=&quot;&quot;&gt;&lt;font style=&quot;font-size: 7px;&quot;&gt;dm_insuranceProductDiscount&lt;/font&gt;&lt;/b&gt;" style="swimlane;fontStyle=0;childLayout=stackLayout;horizontal=1;startSize=20;horizontalStack=0;resizeParent=1;resizeParentMax=0;resizeLast=0;collapsible=1;marginBottom=0;whiteSpace=wrap;html=1;fillColor=#60a917;fontColor=#ffffff;strokeColor=#2D7600;" parent="1" vertex="1">
          <mxGeometry x="260" y="1090" width="110" height="100" as="geometry">
            <mxRectangle x="220" y="110" width="50" height="30" as="alternateBounds" />
          </mxGeometry>
        </mxCell>
        <mxCell id="hAHwSwfUb9-SS9wKCGx1-193" value="&lt;font style=&quot;font-size: 6px;&quot;&gt;&lt;b&gt;pk_iInsuranceProductDiscount&lt;/b&gt;&lt;/font&gt;" style="text;strokeColor=none;fillColor=none;align=center;verticalAlign=middle;spacingLeft=4;spacingRight=4;overflow=hidden;points=[[0,0.5],[1,0.5]];portConstraint=eastwest;rotatable=0;whiteSpace=wrap;html=1;" parent="hAHwSwfUb9-SS9wKCGx1-192" vertex="1">
          <mxGeometry y="20" width="110" height="20" as="geometry" />
        </mxCell>
        <mxCell id="hAHwSwfUb9-SS9wKCGx1-194" value="&lt;font style=&quot;font-size: 6px;&quot;&gt;fk_product&lt;/font&gt;" style="text;strokeColor=none;fillColor=none;align=center;verticalAlign=middle;spacingLeft=4;spacingRight=4;overflow=hidden;points=[[0,0.5],[1,0.5]];portConstraint=eastwest;rotatable=0;whiteSpace=wrap;html=1;" parent="hAHwSwfUb9-SS9wKCGx1-192" vertex="1">
          <mxGeometry y="40" width="110" height="20" as="geometry" />
        </mxCell>
        <mxCell id="hAHwSwfUb9-SS9wKCGx1-195" value="&lt;font style=&quot;font-size: 6px;&quot;&gt;fk_insuranceConfig&lt;/font&gt;" style="text;strokeColor=none;fillColor=none;align=center;verticalAlign=middle;spacingLeft=4;spacingRight=4;overflow=hidden;points=[[0,0.5],[1,0.5]];portConstraint=eastwest;rotatable=0;whiteSpace=wrap;html=1;" parent="hAHwSwfUb9-SS9wKCGx1-192" vertex="1">
          <mxGeometry y="60" width="110" height="20" as="geometry" />
        </mxCell>
        <mxCell id="hAHwSwfUb9-SS9wKCGx1-196" value="&lt;font style=&quot;font-size: 6px;&quot;&gt;fk_insuranceProvider&lt;/font&gt;" style="text;strokeColor=none;fillColor=none;align=center;verticalAlign=middle;spacingLeft=4;spacingRight=4;overflow=hidden;points=[[0,0.5],[1,0.5]];portConstraint=eastwest;rotatable=0;whiteSpace=wrap;html=1;" parent="hAHwSwfUb9-SS9wKCGx1-192" vertex="1">
          <mxGeometry y="80" width="110" height="20" as="geometry" />
        </mxCell>
        <mxCell id="hAHwSwfUb9-SS9wKCGx1-197" value="&lt;font size=&quot;1&quot; style=&quot;&quot;&gt;&lt;b style=&quot;font-size: 5px;&quot;&gt;ProductCharacteristics&lt;/b&gt;&lt;/font&gt;" style="swimlane;fontStyle=0;childLayout=stackLayout;horizontal=1;startSize=20;horizontalStack=0;resizeParent=1;resizeParentMax=0;resizeLast=0;collapsible=1;marginBottom=0;whiteSpace=wrap;html=1;fillColor=#a20025;fontColor=#ffffff;strokeColor=#6F0000;" parent="1" vertex="1">
          <mxGeometry x="1530" y="180" width="60" height="80" as="geometry">
            <mxRectangle x="220" y="110" width="50" height="30" as="alternateBounds" />
          </mxGeometry>
        </mxCell>
        <mxCell id="hAHwSwfUb9-SS9wKCGx1-198" value="&lt;font style=&quot;font-size: 8px;&quot;&gt;&lt;b style=&quot;&quot;&gt;Id&lt;/b&gt;&lt;/font&gt;" style="text;strokeColor=none;fillColor=none;align=center;verticalAlign=middle;spacingLeft=4;spacingRight=4;overflow=hidden;points=[[0,0.5],[1,0.5]];portConstraint=eastwest;rotatable=0;whiteSpace=wrap;html=1;" parent="hAHwSwfUb9-SS9wKCGx1-197" vertex="1">
          <mxGeometry y="20" width="60" height="20" as="geometry" />
        </mxCell>
        <mxCell id="hAHwSwfUb9-SS9wKCGx1-199" value="&lt;span style=&quot;font-size: 6px;&quot;&gt;product_id&lt;/span&gt;" style="text;strokeColor=none;fillColor=none;align=center;verticalAlign=middle;spacingLeft=4;spacingRight=4;overflow=hidden;points=[[0,0.5],[1,0.5]];portConstraint=eastwest;rotatable=0;whiteSpace=wrap;html=1;" parent="hAHwSwfUb9-SS9wKCGx1-197" vertex="1">
          <mxGeometry y="40" width="60" height="20" as="geometry" />
        </mxCell>
        <mxCell id="hAHwSwfUb9-SS9wKCGx1-200" value="&lt;font style=&quot;font-size: 5px;&quot;&gt;Item 3&lt;/font&gt;" style="text;strokeColor=none;fillColor=none;align=center;verticalAlign=middle;spacingLeft=4;spacingRight=4;overflow=hidden;points=[[0,0.5],[1,0.5]];portConstraint=eastwest;rotatable=0;whiteSpace=wrap;html=1;" parent="hAHwSwfUb9-SS9wKCGx1-197" vertex="1">
          <mxGeometry y="60" width="60" height="20" as="geometry" />
        </mxCell>
        <mxCell id="hAHwSwfUb9-SS9wKCGx1-201" value="&lt;font size=&quot;1&quot; style=&quot;&quot;&gt;&lt;b style=&quot;font-size: 7px;&quot;&gt;dm_insuranceProvider&lt;/b&gt;&lt;/font&gt;" style="swimlane;fontStyle=0;childLayout=stackLayout;horizontal=1;startSize=20;horizontalStack=0;resizeParent=1;resizeParentMax=0;resizeLast=0;collapsible=1;marginBottom=0;whiteSpace=wrap;html=1;fillColor=#60a917;strokeColor=#2D7600;fontColor=#ffffff;" parent="1" vertex="1">
          <mxGeometry x="-330" y="1100" width="80" height="40" as="geometry">
            <mxRectangle x="220" y="110" width="50" height="30" as="alternateBounds" />
          </mxGeometry>
        </mxCell>
        <mxCell id="hAHwSwfUb9-SS9wKCGx1-202" value="&lt;font style=&quot;font-size: 6px;&quot;&gt;&lt;b&gt;pk_insuranceProvider&lt;/b&gt;&lt;/font&gt;" style="text;strokeColor=none;fillColor=none;align=center;verticalAlign=middle;spacingLeft=4;spacingRight=4;overflow=hidden;points=[[0,0.5],[1,0.5]];portConstraint=eastwest;rotatable=0;whiteSpace=wrap;html=1;" parent="hAHwSwfUb9-SS9wKCGx1-201" vertex="1">
          <mxGeometry y="20" width="80" height="20" as="geometry" />
        </mxCell>
        <mxCell id="hAHwSwfUb9-SS9wKCGx1-209" value="&lt;font style=&quot;font-size: 7px;&quot;&gt;&lt;b&gt;dm_purchaseOrder&lt;/b&gt;&lt;/font&gt;" style="swimlane;fontStyle=0;childLayout=stackLayout;horizontal=1;startSize=20;horizontalStack=0;resizeParent=1;resizeParentMax=0;resizeLast=0;collapsible=1;marginBottom=0;whiteSpace=wrap;html=1;fillColor=#60a917;fontColor=#ffffff;strokeColor=#2D7600;" parent="1" vertex="1">
          <mxGeometry x="1300" y="700" width="100" height="80" as="geometry">
            <mxRectangle x="220" y="110" width="50" height="30" as="alternateBounds" />
          </mxGeometry>
        </mxCell>
        <mxCell id="hAHwSwfUb9-SS9wKCGx1-210" value="&lt;font style=&quot;font-size: 6px;&quot;&gt;&lt;b&gt;pk_purchaseOrder&lt;/b&gt;&lt;/font&gt;" style="text;strokeColor=none;fillColor=none;align=center;verticalAlign=middle;spacingLeft=4;spacingRight=4;overflow=hidden;points=[[0,0.5],[1,0.5]];portConstraint=eastwest;rotatable=0;whiteSpace=wrap;html=1;" parent="hAHwSwfUb9-SS9wKCGx1-209" vertex="1">
          <mxGeometry y="20" width="100" height="20" as="geometry" />
        </mxCell>
        <mxCell id="hAHwSwfUb9-SS9wKCGx1-211" value="&lt;font style=&quot;font-size: 6px;&quot;&gt;fk_supplier&lt;/font&gt;" style="text;strokeColor=none;fillColor=none;align=center;verticalAlign=middle;spacingLeft=4;spacingRight=4;overflow=hidden;points=[[0,0.5],[1,0.5]];portConstraint=eastwest;rotatable=0;whiteSpace=wrap;html=1;" parent="hAHwSwfUb9-SS9wKCGx1-209" vertex="1">
          <mxGeometry y="40" width="100" height="20" as="geometry" />
        </mxCell>
        <mxCell id="hAHwSwfUb9-SS9wKCGx1-212" value="&lt;font style=&quot;font-size: 6px;&quot;&gt;fk_purchaseOrderStatus&lt;/font&gt;" style="text;strokeColor=none;fillColor=none;align=center;verticalAlign=middle;spacingLeft=4;spacingRight=4;overflow=hidden;points=[[0,0.5],[1,0.5]];portConstraint=eastwest;rotatable=0;whiteSpace=wrap;html=1;" parent="hAHwSwfUb9-SS9wKCGx1-209" vertex="1">
          <mxGeometry y="60" width="100" height="20" as="geometry" />
        </mxCell>
        <mxCell id="hAHwSwfUb9-SS9wKCGx1-213" value="&lt;font size=&quot;1&quot; style=&quot;&quot;&gt;&lt;b style=&quot;font-size: 6px;&quot;&gt;ProductDetailSolution&lt;/b&gt;&lt;/font&gt;" style="swimlane;fontStyle=0;childLayout=stackLayout;horizontal=1;startSize=20;horizontalStack=0;resizeParent=1;resizeParentMax=0;resizeLast=0;collapsible=1;marginBottom=0;whiteSpace=wrap;html=1;fillColor=#a20025;fontColor=#ffffff;strokeColor=#6F0000;" parent="1" vertex="1">
          <mxGeometry x="1530" y="290" width="84" height="80" as="geometry">
            <mxRectangle x="220" y="110" width="50" height="30" as="alternateBounds" />
          </mxGeometry>
        </mxCell>
        <mxCell id="hAHwSwfUb9-SS9wKCGx1-214" value="&lt;font style=&quot;font-size: 6px;&quot;&gt;&lt;b&gt;ProductDetailSolutionID&lt;/b&gt;&lt;/font&gt;" style="text;strokeColor=none;fillColor=none;align=center;verticalAlign=middle;spacingLeft=4;spacingRight=4;overflow=hidden;points=[[0,0.5],[1,0.5]];portConstraint=eastwest;rotatable=0;whiteSpace=wrap;html=1;" parent="hAHwSwfUb9-SS9wKCGx1-213" vertex="1">
          <mxGeometry y="20" width="84" height="20" as="geometry" />
        </mxCell>
        <mxCell id="hAHwSwfUb9-SS9wKCGx1-215" value="&lt;span style=&quot;font-size: 6px;&quot;&gt;ProductID&lt;/span&gt;" style="text;strokeColor=none;fillColor=none;align=center;verticalAlign=middle;spacingLeft=4;spacingRight=4;overflow=hidden;points=[[0,0.5],[1,0.5]];portConstraint=eastwest;rotatable=0;whiteSpace=wrap;html=1;" parent="hAHwSwfUb9-SS9wKCGx1-213" vertex="1">
          <mxGeometry y="40" width="84" height="20" as="geometry" />
        </mxCell>
        <mxCell id="hAHwSwfUb9-SS9wKCGx1-216" value="&lt;font style=&quot;font-size: 5px;&quot;&gt;Item 3&lt;/font&gt;" style="text;strokeColor=none;fillColor=none;align=center;verticalAlign=middle;spacingLeft=4;spacingRight=4;overflow=hidden;points=[[0,0.5],[1,0.5]];portConstraint=eastwest;rotatable=0;whiteSpace=wrap;html=1;" parent="hAHwSwfUb9-SS9wKCGx1-213" vertex="1">
          <mxGeometry y="60" width="84" height="20" as="geometry" />
        </mxCell>
        <mxCell id="hAHwSwfUb9-SS9wKCGx1-217" value="&lt;font style=&quot;font-size: 7px;&quot;&gt;&lt;b&gt;dm_productDetail&lt;/b&gt;&lt;/font&gt;" style="swimlane;fontStyle=0;childLayout=stackLayout;horizontal=1;startSize=20;horizontalStack=0;resizeParent=1;resizeParentMax=0;resizeLast=0;collapsible=1;marginBottom=0;whiteSpace=wrap;html=1;fillColor=#60a917;fontColor=#ffffff;strokeColor=#2D7600;" parent="1" vertex="1">
          <mxGeometry x="980" y="1110" width="60" height="100" as="geometry">
            <mxRectangle x="500" y="100" width="50" height="30" as="alternateBounds" />
          </mxGeometry>
        </mxCell>
        <mxCell id="hAHwSwfUb9-SS9wKCGx1-218" value="&lt;font style=&quot;font-size: 6px;&quot;&gt;&lt;b&gt;pk_productDetail&lt;/b&gt;&lt;/font&gt;" style="text;strokeColor=none;fillColor=none;align=center;verticalAlign=middle;spacingLeft=4;spacingRight=4;overflow=hidden;points=[[0,0.5],[1,0.5]];portConstraint=eastwest;rotatable=0;whiteSpace=wrap;html=1;" parent="hAHwSwfUb9-SS9wKCGx1-217" vertex="1">
          <mxGeometry y="20" width="60" height="20" as="geometry" />
        </mxCell>
        <mxCell id="hAHwSwfUb9-SS9wKCGx1-219" value="&lt;font style=&quot;font-size: 6px;&quot;&gt;fk_product&lt;/font&gt;" style="text;strokeColor=none;fillColor=none;align=center;verticalAlign=middle;spacingLeft=4;spacingRight=4;overflow=hidden;points=[[0,0.5],[1,0.5]];portConstraint=eastwest;rotatable=0;whiteSpace=wrap;html=1;" parent="hAHwSwfUb9-SS9wKCGx1-217" vertex="1">
          <mxGeometry y="40" width="60" height="20" as="geometry" />
        </mxCell>
        <mxCell id="hAHwSwfUb9-SS9wKCGx1-220" value="&lt;font style=&quot;font-size: 6px;&quot;&gt;fk_upc&lt;/font&gt;" style="text;strokeColor=none;fillColor=none;align=center;verticalAlign=middle;spacingLeft=4;spacingRight=4;overflow=hidden;points=[[0,0.5],[1,0.5]];portConstraint=eastwest;rotatable=0;whiteSpace=wrap;html=1;" parent="hAHwSwfUb9-SS9wKCGx1-217" vertex="1">
          <mxGeometry y="60" width="60" height="20" as="geometry" />
        </mxCell>
        <mxCell id="AXXjxFo4343gu81oyU7h-15" value="&lt;font style=&quot;font-size: 6px;&quot;&gt;fk_keyProductParams&lt;/font&gt;" style="text;strokeColor=none;fillColor=none;align=center;verticalAlign=middle;spacingLeft=4;spacingRight=4;overflow=hidden;points=[[0,0.5],[1,0.5]];portConstraint=eastwest;rotatable=0;whiteSpace=wrap;html=1;" parent="hAHwSwfUb9-SS9wKCGx1-217" vertex="1">
          <mxGeometry y="80" width="60" height="20" as="geometry" />
        </mxCell>
        <mxCell id="hAHwSwfUb9-SS9wKCGx1-221" value="&lt;font style=&quot;font-size: 7px;&quot;&gt;&lt;b&gt;dm_productUnitPrice&lt;/b&gt;&lt;/font&gt;" style="swimlane;fontStyle=0;childLayout=stackLayout;horizontal=1;startSize=20;horizontalStack=0;resizeParent=1;resizeParentMax=0;resizeLast=0;collapsible=1;marginBottom=0;whiteSpace=wrap;html=1;fillColor=#a20025;fontColor=#ffffff;strokeColor=#6F0000;" parent="1" vertex="1">
          <mxGeometry x="1270" y="210" width="90" height="60" as="geometry">
            <mxRectangle x="220" y="110" width="50" height="30" as="alternateBounds" />
          </mxGeometry>
        </mxCell>
        <mxCell id="hAHwSwfUb9-SS9wKCGx1-222" value="&lt;font style=&quot;font-size: 6px;&quot;&gt;&lt;b&gt;pk_productUnitPrice&lt;/b&gt;&lt;/font&gt;" style="text;strokeColor=none;fillColor=none;align=center;verticalAlign=middle;spacingLeft=4;spacingRight=4;overflow=hidden;points=[[0,0.5],[1,0.5]];portConstraint=eastwest;rotatable=0;whiteSpace=wrap;html=1;" parent="hAHwSwfUb9-SS9wKCGx1-221" vertex="1">
          <mxGeometry y="20" width="90" height="20" as="geometry" />
        </mxCell>
        <mxCell id="hAHwSwfUb9-SS9wKCGx1-223" value="&lt;span style=&quot;font-size: 6px;&quot;&gt;fk_product&lt;/span&gt;" style="text;strokeColor=none;fillColor=none;align=center;verticalAlign=middle;spacingLeft=4;spacingRight=4;overflow=hidden;points=[[0,0.5],[1,0.5]];portConstraint=eastwest;rotatable=0;whiteSpace=wrap;html=1;" parent="hAHwSwfUb9-SS9wKCGx1-221" vertex="1">
          <mxGeometry y="40" width="90" height="20" as="geometry" />
        </mxCell>
        <mxCell id="hAHwSwfUb9-SS9wKCGx1-225" value="&lt;font size=&quot;1&quot; style=&quot;&quot;&gt;&lt;b style=&quot;font-size: 7px;&quot;&gt;dm_productPurchasePrice&lt;/b&gt;&lt;/font&gt;" style="swimlane;fontStyle=0;childLayout=stackLayout;horizontal=1;startSize=20;horizontalStack=0;resizeParent=1;resizeParentMax=0;resizeLast=0;collapsible=1;marginBottom=0;whiteSpace=wrap;html=1;fillColor=#a20025;fontColor=#ffffff;strokeColor=#6F0000;" parent="1" vertex="1">
          <mxGeometry x="1403.5" y="210" width="93" height="60" as="geometry">
            <mxRectangle x="220" y="110" width="50" height="30" as="alternateBounds" />
          </mxGeometry>
        </mxCell>
        <mxCell id="hAHwSwfUb9-SS9wKCGx1-226" value="&lt;font style=&quot;font-size: 6px;&quot;&gt;&lt;b&gt;pk_productPurchasePrice&lt;/b&gt;&lt;/font&gt;" style="text;strokeColor=none;fillColor=none;align=center;verticalAlign=middle;spacingLeft=4;spacingRight=4;overflow=hidden;points=[[0,0.5],[1,0.5]];portConstraint=eastwest;rotatable=0;whiteSpace=wrap;html=1;" parent="hAHwSwfUb9-SS9wKCGx1-225" vertex="1">
          <mxGeometry y="20" width="93" height="20" as="geometry" />
        </mxCell>
        <mxCell id="hAHwSwfUb9-SS9wKCGx1-227" value="&lt;font style=&quot;font-size: 6px;&quot;&gt;fk_product&lt;/font&gt;" style="text;strokeColor=none;fillColor=none;align=center;verticalAlign=middle;spacingLeft=4;spacingRight=4;overflow=hidden;points=[[0,0.5],[1,0.5]];portConstraint=eastwest;rotatable=0;whiteSpace=wrap;html=1;" parent="hAHwSwfUb9-SS9wKCGx1-225" vertex="1">
          <mxGeometry y="40" width="93" height="20" as="geometry" />
        </mxCell>
        <mxCell id="hAHwSwfUb9-SS9wKCGx1-229" value="&lt;font style=&quot;font-size: 7px;&quot;&gt;&lt;b&gt;dm_coupon&lt;/b&gt;&lt;/font&gt;" style="swimlane;fontStyle=0;childLayout=stackLayout;horizontal=1;startSize=20;horizontalStack=0;resizeParent=1;resizeParentMax=0;resizeLast=0;collapsible=1;marginBottom=0;whiteSpace=wrap;html=1;fillColor=#60a917;fontColor=#ffffff;strokeColor=#2D7600;" parent="1" vertex="1">
          <mxGeometry x="225" y="90" width="60" height="40" as="geometry">
            <mxRectangle x="220" y="110" width="50" height="30" as="alternateBounds" />
          </mxGeometry>
        </mxCell>
        <mxCell id="hAHwSwfUb9-SS9wKCGx1-230" value="&lt;font style=&quot;font-size: 6px;&quot;&gt;&lt;b&gt;pk_coupon&lt;/b&gt;&lt;/font&gt;" style="text;strokeColor=none;fillColor=none;align=center;verticalAlign=middle;spacingLeft=4;spacingRight=4;overflow=hidden;points=[[0,0.5],[1,0.5]];portConstraint=eastwest;rotatable=0;whiteSpace=wrap;html=1;" parent="hAHwSwfUb9-SS9wKCGx1-229" vertex="1">
          <mxGeometry y="20" width="60" height="20" as="geometry" />
        </mxCell>
        <mxCell id="hAHwSwfUb9-SS9wKCGx1-233" value="&lt;font style=&quot;font-size: 7px;&quot;&gt;&lt;b&gt;dm_supplier&lt;/b&gt;&lt;/font&gt;" style="swimlane;fontStyle=0;childLayout=stackLayout;horizontal=1;startSize=20;horizontalStack=0;resizeParent=1;resizeParentMax=0;resizeLast=0;collapsible=1;marginBottom=0;whiteSpace=wrap;html=1;fillColor=#60a917;fontColor=#ffffff;strokeColor=#2D7600;" parent="1" vertex="1">
          <mxGeometry x="1300" y="565" width="60" height="40" as="geometry">
            <mxRectangle x="220" y="110" width="50" height="30" as="alternateBounds" />
          </mxGeometry>
        </mxCell>
        <mxCell id="hAHwSwfUb9-SS9wKCGx1-234" value="&lt;font style=&quot;font-size: 6px;&quot;&gt;&lt;b&gt;pk_supplier&lt;/b&gt;&lt;/font&gt;" style="text;strokeColor=none;fillColor=none;align=center;verticalAlign=middle;spacingLeft=4;spacingRight=4;overflow=hidden;points=[[0,0.5],[1,0.5]];portConstraint=eastwest;rotatable=0;whiteSpace=wrap;html=1;" parent="hAHwSwfUb9-SS9wKCGx1-233" vertex="1">
          <mxGeometry y="20" width="60" height="20" as="geometry" />
        </mxCell>
        <mxCell id="hAHwSwfUb9-SS9wKCGx1-237" value="&lt;span style=&quot;font-size: 6px;&quot;&gt;&lt;b&gt;ft_purchaseOrderDetail&lt;/b&gt;&lt;/span&gt;" style="swimlane;fontStyle=0;childLayout=stackLayout;horizontal=1;startSize=20;horizontalStack=0;resizeParent=1;resizeParentMax=0;resizeLast=0;collapsible=1;marginBottom=0;whiteSpace=wrap;html=1;fillColor=#0050ef;fontColor=#ffffff;strokeColor=#001DBC;" parent="1" vertex="1">
          <mxGeometry x="1090" y="830" width="80" height="120" as="geometry">
            <mxRectangle x="220" y="110" width="50" height="30" as="alternateBounds" />
          </mxGeometry>
        </mxCell>
        <mxCell id="hAHwSwfUb9-SS9wKCGx1-238" value="&lt;font style=&quot;font-size: 6px;&quot;&gt;&lt;b&gt;pk_purchaseOrderDetail&lt;/b&gt;&lt;/font&gt;" style="text;strokeColor=none;fillColor=none;align=center;verticalAlign=middle;spacingLeft=4;spacingRight=4;overflow=hidden;points=[[0,0.5],[1,0.5]];portConstraint=eastwest;rotatable=0;whiteSpace=wrap;html=1;" parent="hAHwSwfUb9-SS9wKCGx1-237" vertex="1">
          <mxGeometry y="20" width="80" height="20" as="geometry" />
        </mxCell>
        <mxCell id="hAHwSwfUb9-SS9wKCGx1-239" value="&lt;font style=&quot;font-size: 6px;&quot;&gt;fk_purchaseOrder&lt;/font&gt;" style="text;strokeColor=none;fillColor=none;align=center;verticalAlign=middle;spacingLeft=4;spacingRight=4;overflow=hidden;points=[[0,0.5],[1,0.5]];portConstraint=eastwest;rotatable=0;whiteSpace=wrap;html=1;" parent="hAHwSwfUb9-SS9wKCGx1-237" vertex="1">
          <mxGeometry y="40" width="80" height="20" as="geometry" />
        </mxCell>
        <mxCell id="hAHwSwfUb9-SS9wKCGx1-240" value="&lt;font style=&quot;font-size: 6px;&quot;&gt;fk_upc&lt;/font&gt;" style="text;strokeColor=none;fillColor=none;align=center;verticalAlign=middle;spacingLeft=4;spacingRight=4;overflow=hidden;points=[[0,0.5],[1,0.5]];portConstraint=eastwest;rotatable=0;whiteSpace=wrap;html=1;" parent="hAHwSwfUb9-SS9wKCGx1-237" vertex="1">
          <mxGeometry y="60" width="80" height="20" as="geometry" />
        </mxCell>
        <mxCell id="hAHwSwfUb9-SS9wKCGx1-241" value="&lt;font style=&quot;font-size: 6px;&quot;&gt;fk_product&lt;/font&gt;" style="text;strokeColor=none;fillColor=none;align=center;verticalAlign=middle;spacingLeft=4;spacingRight=4;overflow=hidden;points=[[0,0.5],[1,0.5]];portConstraint=eastwest;rotatable=0;whiteSpace=wrap;html=1;" parent="hAHwSwfUb9-SS9wKCGx1-237" vertex="1">
          <mxGeometry y="80" width="80" height="20" as="geometry" />
        </mxCell>
        <mxCell id="DW8XrIuQieSACk_FB94P-1" value="&lt;font style=&quot;font-size: 6px;&quot;&gt;fk_time&lt;/font&gt;" style="text;strokeColor=none;fillColor=none;align=center;verticalAlign=middle;spacingLeft=4;spacingRight=4;overflow=hidden;points=[[0,0.5],[1,0.5]];portConstraint=eastwest;rotatable=0;whiteSpace=wrap;html=1;" parent="hAHwSwfUb9-SS9wKCGx1-237" vertex="1">
          <mxGeometry y="100" width="80" height="20" as="geometry" />
        </mxCell>
        <mxCell id="hAHwSwfUb9-SS9wKCGx1-242" value="&lt;font size=&quot;1&quot; style=&quot;&quot;&gt;&lt;b style=&quot;font-size: 6px;&quot;&gt;ft_shoppingcartTrackingProduct&lt;/b&gt;&lt;/font&gt;" style="swimlane;fontStyle=0;childLayout=stackLayout;horizontal=1;startSize=20;horizontalStack=0;resizeParent=1;resizeParentMax=0;resizeLast=0;collapsible=1;marginBottom=0;whiteSpace=wrap;html=1;fillColor=#0050ef;fontColor=#ffffff;strokeColor=#001DBC;" parent="1" vertex="1">
          <mxGeometry x="484" y="920" width="106" height="120" as="geometry">
            <mxRectangle x="220" y="110" width="50" height="30" as="alternateBounds" />
          </mxGeometry>
        </mxCell>
        <mxCell id="hAHwSwfUb9-SS9wKCGx1-243" value="&lt;font style=&quot;font-size: 6px;&quot;&gt;&lt;b&gt;pk_shoppingCartTrackingProduct&lt;/b&gt;&lt;/font&gt;" style="text;strokeColor=none;fillColor=none;align=center;verticalAlign=middle;spacingLeft=4;spacingRight=4;overflow=hidden;points=[[0,0.5],[1,0.5]];portConstraint=eastwest;rotatable=0;whiteSpace=wrap;html=1;" parent="hAHwSwfUb9-SS9wKCGx1-242" vertex="1">
          <mxGeometry y="20" width="106" height="20" as="geometry" />
        </mxCell>
        <mxCell id="hAHwSwfUb9-SS9wKCGx1-244" value="&lt;font style=&quot;font-size: 6px;&quot;&gt;fk_shoppingCartTracking&lt;/font&gt;" style="text;strokeColor=none;fillColor=none;align=center;verticalAlign=middle;spacingLeft=4;spacingRight=4;overflow=hidden;points=[[0,0.5],[1,0.5]];portConstraint=eastwest;rotatable=0;whiteSpace=wrap;html=1;" parent="hAHwSwfUb9-SS9wKCGx1-242" vertex="1">
          <mxGeometry y="40" width="106" height="20" as="geometry" />
        </mxCell>
        <mxCell id="hAHwSwfUb9-SS9wKCGx1-245" value="&lt;font style=&quot;font-size: 6px;&quot;&gt;fk_product&lt;/font&gt;" style="text;strokeColor=none;fillColor=none;align=center;verticalAlign=middle;spacingLeft=4;spacingRight=4;overflow=hidden;points=[[0,0.5],[1,0.5]];portConstraint=eastwest;rotatable=0;whiteSpace=wrap;html=1;" parent="hAHwSwfUb9-SS9wKCGx1-242" vertex="1">
          <mxGeometry y="60" width="106" height="20" as="geometry" />
        </mxCell>
        <mxCell id="jqIHqxnoQR1oQGkFiCPk-1" value="&lt;span style=&quot;font-size: 6px;&quot;&gt;fk_keyProductParams&lt;/span&gt;" style="text;strokeColor=none;fillColor=none;align=center;verticalAlign=middle;spacingLeft=4;spacingRight=4;overflow=hidden;points=[[0,0.5],[1,0.5]];portConstraint=eastwest;rotatable=0;whiteSpace=wrap;html=1;" parent="hAHwSwfUb9-SS9wKCGx1-242" vertex="1">
          <mxGeometry y="80" width="106" height="20" as="geometry" />
        </mxCell>
        <mxCell id="JQwDpqhkxF0Kz64Juls8-4" value="&lt;font style=&quot;font-size: 6px;&quot;&gt;fk_time&lt;/font&gt;" style="text;strokeColor=none;fillColor=none;align=center;verticalAlign=middle;spacingLeft=4;spacingRight=4;overflow=hidden;points=[[0,0.5],[1,0.5]];portConstraint=eastwest;rotatable=0;whiteSpace=wrap;html=1;" parent="hAHwSwfUb9-SS9wKCGx1-242" vertex="1">
          <mxGeometry y="100" width="106" height="20" as="geometry" />
        </mxCell>
        <mxCell id="hAHwSwfUb9-SS9wKCGx1-264" value="" style="endArrow=none;html=1;rounded=0;exitX=0.989;exitY=0.25;exitDx=0;exitDy=0;endFill=0;exitPerimeter=0;" parent="1" source="hAHwSwfUb9-SS9wKCGx1-230" target="hAHwSwfUb9-SS9wKCGx1-62" edge="1">
          <mxGeometry relative="1" as="geometry">
            <mxPoint x="60" y="690" as="sourcePoint" />
            <mxPoint x="220" y="690" as="targetPoint" />
            <Array as="points" />
          </mxGeometry>
        </mxCell>
        <mxCell id="hAHwSwfUb9-SS9wKCGx1-266" value="1" style="edgeLabel;resizable=0;html=1;align=left;verticalAlign=bottom;" parent="hAHwSwfUb9-SS9wKCGx1-264" connectable="0" vertex="1">
          <mxGeometry x="-1" relative="1" as="geometry" />
        </mxCell>
        <mxCell id="hAHwSwfUb9-SS9wKCGx1-267" value="N" style="edgeLabel;resizable=0;html=1;align=right;verticalAlign=bottom;" parent="hAHwSwfUb9-SS9wKCGx1-264" connectable="0" vertex="1">
          <mxGeometry x="1" relative="1" as="geometry">
            <mxPoint x="-14" y="10" as="offset" />
          </mxGeometry>
        </mxCell>
        <mxCell id="hAHwSwfUb9-SS9wKCGx1-268" value="" style="endArrow=none;html=1;rounded=0;entryX=0.5;entryY=0;entryDx=0;entryDy=0;endFill=0;" parent="1" source="hAHwSwfUb9-SS9wKCGx1-72" target="hAHwSwfUb9-SS9wKCGx1-242" edge="1">
          <mxGeometry relative="1" as="geometry">
            <mxPoint x="380" y="950" as="sourcePoint" />
            <mxPoint x="540" y="950" as="targetPoint" />
          </mxGeometry>
        </mxCell>
        <mxCell id="hAHwSwfUb9-SS9wKCGx1-270" value="1" style="edgeLabel;resizable=0;html=1;align=left;verticalAlign=bottom;" parent="hAHwSwfUb9-SS9wKCGx1-268" connectable="0" vertex="1">
          <mxGeometry x="-1" relative="1" as="geometry">
            <mxPoint x="-4" y="22" as="offset" />
          </mxGeometry>
        </mxCell>
        <mxCell id="hAHwSwfUb9-SS9wKCGx1-271" value="N" style="edgeLabel;resizable=0;html=1;align=right;verticalAlign=bottom;" parent="hAHwSwfUb9-SS9wKCGx1-268" connectable="0" vertex="1">
          <mxGeometry x="1" relative="1" as="geometry" />
        </mxCell>
        <mxCell id="hAHwSwfUb9-SS9wKCGx1-295" value="" style="endArrow=none;html=1;rounded=0;exitX=1;exitY=0.5;exitDx=0;exitDy=0;endFill=0;" parent="1" source="hAHwSwfUb9-SS9wKCGx1-194" target="hAHwSwfUb9-SS9wKCGx1-188" edge="1">
          <mxGeometry relative="1" as="geometry">
            <mxPoint x="430" y="1080" as="sourcePoint" />
            <mxPoint x="590" y="1080" as="targetPoint" />
          </mxGeometry>
        </mxCell>
        <mxCell id="hAHwSwfUb9-SS9wKCGx1-297" value="1" style="edgeLabel;resizable=0;html=1;align=left;verticalAlign=bottom;" parent="hAHwSwfUb9-SS9wKCGx1-295" connectable="0" vertex="1">
          <mxGeometry x="-1" relative="1" as="geometry" />
        </mxCell>
        <mxCell id="hAHwSwfUb9-SS9wKCGx1-298" value="N" style="edgeLabel;resizable=0;html=1;align=right;verticalAlign=bottom;" parent="hAHwSwfUb9-SS9wKCGx1-295" connectable="0" vertex="1">
          <mxGeometry x="1" relative="1" as="geometry">
            <mxPoint x="-13" as="offset" />
          </mxGeometry>
        </mxCell>
        <mxCell id="hAHwSwfUb9-SS9wKCGx1-303" value="" style="endArrow=none;html=1;rounded=0;exitX=1;exitY=0;exitDx=0;exitDy=0;endFill=0;" parent="1" source="hAHwSwfUb9-SS9wKCGx1-188" target="hAHwSwfUb9-SS9wKCGx1-217" edge="1">
          <mxGeometry relative="1" as="geometry">
            <mxPoint x="520" y="1030" as="sourcePoint" />
            <mxPoint x="680" y="1030" as="targetPoint" />
          </mxGeometry>
        </mxCell>
        <mxCell id="hAHwSwfUb9-SS9wKCGx1-305" value="1" style="edgeLabel;resizable=0;html=1;align=left;verticalAlign=bottom;" parent="hAHwSwfUb9-SS9wKCGx1-303" connectable="0" vertex="1">
          <mxGeometry x="-1" relative="1" as="geometry" />
        </mxCell>
        <mxCell id="hAHwSwfUb9-SS9wKCGx1-306" value="N" style="edgeLabel;resizable=0;html=1;align=right;verticalAlign=bottom;" parent="hAHwSwfUb9-SS9wKCGx1-303" connectable="0" vertex="1">
          <mxGeometry x="1" relative="1" as="geometry">
            <mxPoint x="-5" y="14" as="offset" />
          </mxGeometry>
        </mxCell>
        <mxCell id="hAHwSwfUb9-SS9wKCGx1-331" value="" style="endArrow=none;html=1;rounded=0;endFill=0;" parent="1" source="hAHwSwfUb9-SS9wKCGx1-217" target="hAHwSwfUb9-SS9wKCGx1-237" edge="1">
          <mxGeometry relative="1" as="geometry">
            <mxPoint x="830" y="680" as="sourcePoint" />
            <mxPoint x="990" y="680" as="targetPoint" />
          </mxGeometry>
        </mxCell>
        <mxCell id="hAHwSwfUb9-SS9wKCGx1-333" value="1" style="edgeLabel;resizable=0;html=1;align=left;verticalAlign=bottom;" parent="hAHwSwfUb9-SS9wKCGx1-331" connectable="0" vertex="1">
          <mxGeometry x="-1" relative="1" as="geometry" />
        </mxCell>
        <mxCell id="hAHwSwfUb9-SS9wKCGx1-334" value="N" style="edgeLabel;resizable=0;html=1;align=right;verticalAlign=bottom;" parent="hAHwSwfUb9-SS9wKCGx1-331" connectable="0" vertex="1">
          <mxGeometry x="1" relative="1" as="geometry" />
        </mxCell>
        <mxCell id="hAHwSwfUb9-SS9wKCGx1-335" value="" style="endArrow=none;html=1;rounded=0;endFill=0;" parent="1" source="hAHwSwfUb9-SS9wKCGx1-237" target="hAHwSwfUb9-SS9wKCGx1-209" edge="1">
          <mxGeometry relative="1" as="geometry">
            <mxPoint x="880" y="630" as="sourcePoint" />
            <mxPoint x="1040" y="630" as="targetPoint" />
          </mxGeometry>
        </mxCell>
        <mxCell id="hAHwSwfUb9-SS9wKCGx1-337" value="N" style="edgeLabel;resizable=0;html=1;align=left;verticalAlign=bottom;" parent="hAHwSwfUb9-SS9wKCGx1-335" connectable="0" vertex="1">
          <mxGeometry x="-1" relative="1" as="geometry" />
        </mxCell>
        <mxCell id="hAHwSwfUb9-SS9wKCGx1-338" value="1" style="edgeLabel;resizable=0;html=1;align=right;verticalAlign=bottom;" parent="hAHwSwfUb9-SS9wKCGx1-335" connectable="0" vertex="1">
          <mxGeometry x="1" relative="1" as="geometry">
            <mxPoint x="-5" as="offset" />
          </mxGeometry>
        </mxCell>
        <mxCell id="hAHwSwfUb9-SS9wKCGx1-339" value="" style="endArrow=none;html=1;rounded=0;entryX=0.583;entryY=0.029;entryDx=0;entryDy=0;entryPerimeter=0;endFill=0;" parent="1" source="hAHwSwfUb9-SS9wKCGx1-233" target="hAHwSwfUb9-SS9wKCGx1-209" edge="1">
          <mxGeometry relative="1" as="geometry">
            <mxPoint x="1064.48" y="490.62" as="sourcePoint" />
            <mxPoint x="1040" y="630" as="targetPoint" />
          </mxGeometry>
        </mxCell>
        <mxCell id="hAHwSwfUb9-SS9wKCGx1-341" value="1" style="edgeLabel;resizable=0;html=1;align=left;verticalAlign=bottom;" parent="hAHwSwfUb9-SS9wKCGx1-339" connectable="0" vertex="1">
          <mxGeometry x="-1" relative="1" as="geometry">
            <mxPoint x="-4" y="20" as="offset" />
          </mxGeometry>
        </mxCell>
        <mxCell id="hAHwSwfUb9-SS9wKCGx1-342" value="N" style="edgeLabel;resizable=0;html=1;align=right;verticalAlign=bottom;" parent="hAHwSwfUb9-SS9wKCGx1-339" connectable="0" vertex="1">
          <mxGeometry x="1" relative="1" as="geometry">
            <mxPoint x="3" y="-5" as="offset" />
          </mxGeometry>
        </mxCell>
        <mxCell id="hAHwSwfUb9-SS9wKCGx1-343" value="" style="endArrow=none;html=1;rounded=0;exitX=1;exitY=0.5;exitDx=0;exitDy=0;entryX=0;entryY=0.125;entryDx=0;entryDy=0;endFill=0;entryPerimeter=0;" parent="1" source="hAHwSwfUb9-SS9wKCGx1-244" target="hAHwSwfUb9-SS9wKCGx1-217" edge="1">
          <mxGeometry relative="1" as="geometry">
            <mxPoint x="610" y="940" as="sourcePoint" />
            <mxPoint x="770" y="940" as="targetPoint" />
          </mxGeometry>
        </mxCell>
        <mxCell id="hAHwSwfUb9-SS9wKCGx1-345" value="N" style="edgeLabel;resizable=0;html=1;align=left;verticalAlign=bottom;" parent="hAHwSwfUb9-SS9wKCGx1-343" connectable="0" vertex="1">
          <mxGeometry x="-1" relative="1" as="geometry">
            <mxPoint x="7" y="5" as="offset" />
          </mxGeometry>
        </mxCell>
        <mxCell id="hAHwSwfUb9-SS9wKCGx1-346" value="1" style="edgeLabel;resizable=0;html=1;align=right;verticalAlign=bottom;" parent="hAHwSwfUb9-SS9wKCGx1-343" connectable="0" vertex="1">
          <mxGeometry x="1" relative="1" as="geometry">
            <mxPoint x="-6" y="5" as="offset" />
          </mxGeometry>
        </mxCell>
        <mxCell id="gfvV_bose1nTouLmZT6s-2" value="" style="endArrow=none;html=1;rounded=0;endFill=0;" parent="1" source="hAHwSwfUb9-SS9wKCGx1-9" target="hAHwSwfUb9-SS9wKCGx1-188" edge="1">
          <mxGeometry relative="1" as="geometry">
            <mxPoint x="770" y="770" as="sourcePoint" />
            <mxPoint x="740" y="990" as="targetPoint" />
            <Array as="points">
              <mxPoint x="860" y="850" />
            </Array>
          </mxGeometry>
        </mxCell>
        <mxCell id="gfvV_bose1nTouLmZT6s-4" value="N" style="edgeLabel;resizable=0;html=1;;align=left;verticalAlign=bottom;" parent="gfvV_bose1nTouLmZT6s-2" connectable="0" vertex="1">
          <mxGeometry x="-1" relative="1" as="geometry">
            <mxPoint x="-10" y="20" as="offset" />
          </mxGeometry>
        </mxCell>
        <mxCell id="gfvV_bose1nTouLmZT6s-5" value="1" style="edgeLabel;resizable=0;html=1;;align=right;verticalAlign=bottom;" parent="gfvV_bose1nTouLmZT6s-2" connectable="0" vertex="1">
          <mxGeometry x="1" relative="1" as="geometry">
            <mxPoint x="1" y="-1" as="offset" />
          </mxGeometry>
        </mxCell>
        <mxCell id="gfvV_bose1nTouLmZT6s-20" value="" style="endArrow=none;html=1;rounded=0;exitX=0.016;exitY=0.682;exitDx=0;exitDy=0;exitPerimeter=0;endFill=0;" parent="1" source="hAHwSwfUb9-SS9wKCGx1-79" target="hAHwSwfUb9-SS9wKCGx1-144" edge="1">
          <mxGeometry relative="1" as="geometry">
            <mxPoint x="170" y="730" as="sourcePoint" />
            <mxPoint x="69.33999999999992" y="792.56" as="targetPoint" />
            <Array as="points" />
          </mxGeometry>
        </mxCell>
        <mxCell id="gfvV_bose1nTouLmZT6s-22" value="1" style="edgeLabel;resizable=0;html=1;;align=left;verticalAlign=bottom;" parent="gfvV_bose1nTouLmZT6s-20" connectable="0" vertex="1">
          <mxGeometry x="-1" relative="1" as="geometry">
            <mxPoint x="-9" y="3" as="offset" />
          </mxGeometry>
        </mxCell>
        <mxCell id="gfvV_bose1nTouLmZT6s-23" value="N" style="edgeLabel;resizable=0;html=1;;align=right;verticalAlign=bottom;" parent="gfvV_bose1nTouLmZT6s-20" connectable="0" vertex="1">
          <mxGeometry x="1" relative="1" as="geometry">
            <mxPoint x="11" y="-3" as="offset" />
          </mxGeometry>
        </mxCell>
        <mxCell id="gfvV_bose1nTouLmZT6s-24" value="&lt;font style=&quot;font-size: 7px;&quot;&gt;&lt;b&gt;dm_productOffer&lt;/b&gt;&lt;/font&gt;" style="swimlane;fontStyle=0;childLayout=stackLayout;horizontal=1;startSize=20;horizontalStack=0;resizeParent=1;resizeParentMax=0;resizeLast=0;collapsible=1;marginBottom=0;whiteSpace=wrap;html=1;fillColor=#60a917;fontColor=#ffffff;strokeColor=#2D7600;" parent="1" vertex="1">
          <mxGeometry x="560" y="60" width="60" height="40" as="geometry">
            <mxRectangle x="220" y="110" width="50" height="30" as="alternateBounds" />
          </mxGeometry>
        </mxCell>
        <mxCell id="gfvV_bose1nTouLmZT6s-25" value="&lt;font style=&quot;font-size: 6px;&quot;&gt;&lt;b&gt;pk_productOffer&lt;/b&gt;&lt;/font&gt;" style="text;strokeColor=none;fillColor=none;align=center;verticalAlign=middle;spacingLeft=4;spacingRight=4;overflow=hidden;points=[[0,0.5],[1,0.5]];portConstraint=eastwest;rotatable=0;whiteSpace=wrap;html=1;" parent="gfvV_bose1nTouLmZT6s-24" vertex="1">
          <mxGeometry y="20" width="60" height="20" as="geometry" />
        </mxCell>
        <mxCell id="gfvV_bose1nTouLmZT6s-28" value="&lt;font style=&quot;font-size: 7px;&quot;&gt;&lt;b&gt;ShippingParams&lt;/b&gt;&lt;/font&gt;" style="swimlane;fontStyle=0;childLayout=stackLayout;horizontal=1;startSize=20;horizontalStack=0;resizeParent=1;resizeParentMax=0;resizeLast=0;collapsible=1;marginBottom=0;whiteSpace=wrap;html=1;" parent="1" vertex="1">
          <mxGeometry x="1376" y="50" width="60" height="80" as="geometry">
            <mxRectangle x="220" y="110" width="50" height="30" as="alternateBounds" />
          </mxGeometry>
        </mxCell>
        <mxCell id="gfvV_bose1nTouLmZT6s-29" value="&lt;font style=&quot;font-size: 6px;&quot;&gt;&lt;b&gt;ShippingParamsId&lt;/b&gt;&lt;/font&gt;" style="text;strokeColor=none;fillColor=none;align=center;verticalAlign=middle;spacingLeft=4;spacingRight=4;overflow=hidden;points=[[0,0.5],[1,0.5]];portConstraint=eastwest;rotatable=0;whiteSpace=wrap;html=1;" parent="gfvV_bose1nTouLmZT6s-28" vertex="1">
          <mxGeometry y="20" width="60" height="20" as="geometry" />
        </mxCell>
        <mxCell id="gfvV_bose1nTouLmZT6s-30" value="&lt;font style=&quot;font-size: 5px;&quot;&gt;Item 2&lt;/font&gt;" style="text;strokeColor=none;fillColor=none;align=center;verticalAlign=middle;spacingLeft=4;spacingRight=4;overflow=hidden;points=[[0,0.5],[1,0.5]];portConstraint=eastwest;rotatable=0;whiteSpace=wrap;html=1;" parent="gfvV_bose1nTouLmZT6s-28" vertex="1">
          <mxGeometry y="40" width="60" height="20" as="geometry" />
        </mxCell>
        <mxCell id="gfvV_bose1nTouLmZT6s-31" value="&lt;font style=&quot;font-size: 5px;&quot;&gt;Item 3&lt;/font&gt;" style="text;strokeColor=none;fillColor=none;align=center;verticalAlign=middle;spacingLeft=4;spacingRight=4;overflow=hidden;points=[[0,0.5],[1,0.5]];portConstraint=eastwest;rotatable=0;whiteSpace=wrap;html=1;" parent="gfvV_bose1nTouLmZT6s-28" vertex="1">
          <mxGeometry y="60" width="60" height="20" as="geometry" />
        </mxCell>
        <mxCell id="gfvV_bose1nTouLmZT6s-32" value="&lt;font style=&quot;font-size: 7px;&quot;&gt;&lt;b&gt;ShippingMethod&lt;/b&gt;&lt;/font&gt;" style="swimlane;fontStyle=0;childLayout=stackLayout;horizontal=1;startSize=20;horizontalStack=0;resizeParent=1;resizeParentMax=0;resizeLast=0;collapsible=1;marginBottom=0;whiteSpace=wrap;html=1;" parent="1" vertex="1">
          <mxGeometry x="1446" y="50" width="60" height="80" as="geometry">
            <mxRectangle x="220" y="110" width="50" height="30" as="alternateBounds" />
          </mxGeometry>
        </mxCell>
        <mxCell id="gfvV_bose1nTouLmZT6s-33" value="&lt;font style=&quot;font-size: 6px;&quot;&gt;&lt;b&gt;ShippingMethodId&lt;/b&gt;&lt;/font&gt;" style="text;strokeColor=none;fillColor=none;align=center;verticalAlign=middle;spacingLeft=4;spacingRight=4;overflow=hidden;points=[[0,0.5],[1,0.5]];portConstraint=eastwest;rotatable=0;whiteSpace=wrap;html=1;" parent="gfvV_bose1nTouLmZT6s-32" vertex="1">
          <mxGeometry y="20" width="60" height="20" as="geometry" />
        </mxCell>
        <mxCell id="gfvV_bose1nTouLmZT6s-34" value="&lt;font style=&quot;font-size: 5px;&quot;&gt;Item 2&lt;/font&gt;" style="text;strokeColor=none;fillColor=none;align=center;verticalAlign=middle;spacingLeft=4;spacingRight=4;overflow=hidden;points=[[0,0.5],[1,0.5]];portConstraint=eastwest;rotatable=0;whiteSpace=wrap;html=1;" parent="gfvV_bose1nTouLmZT6s-32" vertex="1">
          <mxGeometry y="40" width="60" height="20" as="geometry" />
        </mxCell>
        <mxCell id="gfvV_bose1nTouLmZT6s-35" value="&lt;font style=&quot;font-size: 5px;&quot;&gt;Item 3&lt;/font&gt;" style="text;strokeColor=none;fillColor=none;align=center;verticalAlign=middle;spacingLeft=4;spacingRight=4;overflow=hidden;points=[[0,0.5],[1,0.5]];portConstraint=eastwest;rotatable=0;whiteSpace=wrap;html=1;" parent="gfvV_bose1nTouLmZT6s-32" vertex="1">
          <mxGeometry y="60" width="60" height="20" as="geometry" />
        </mxCell>
        <mxCell id="gfvV_bose1nTouLmZT6s-36" value="&lt;font style=&quot;font-size: 7px;&quot;&gt;&lt;b&gt;VatHistory&lt;/b&gt;&lt;/font&gt;" style="swimlane;fontStyle=0;childLayout=stackLayout;horizontal=1;startSize=20;horizontalStack=0;resizeParent=1;resizeParentMax=0;resizeLast=0;collapsible=1;marginBottom=0;whiteSpace=wrap;html=1;" parent="1" vertex="1">
          <mxGeometry x="1241" y="50" width="60" height="80" as="geometry">
            <mxRectangle x="220" y="110" width="50" height="30" as="alternateBounds" />
          </mxGeometry>
        </mxCell>
        <mxCell id="gfvV_bose1nTouLmZT6s-37" value="&lt;font style=&quot;font-size: 6px;&quot;&gt;&lt;b&gt;VatHistoryId&lt;/b&gt;&lt;/font&gt;" style="text;strokeColor=none;fillColor=none;align=center;verticalAlign=middle;spacingLeft=4;spacingRight=4;overflow=hidden;points=[[0,0.5],[1,0.5]];portConstraint=eastwest;rotatable=0;whiteSpace=wrap;html=1;" parent="gfvV_bose1nTouLmZT6s-36" vertex="1">
          <mxGeometry y="20" width="60" height="20" as="geometry" />
        </mxCell>
        <mxCell id="gfvV_bose1nTouLmZT6s-38" value="&lt;font style=&quot;font-size: 6px;&quot;&gt;UserId&lt;/font&gt;" style="text;strokeColor=none;fillColor=none;align=center;verticalAlign=middle;spacingLeft=4;spacingRight=4;overflow=hidden;points=[[0,0.5],[1,0.5]];portConstraint=eastwest;rotatable=0;whiteSpace=wrap;html=1;" parent="gfvV_bose1nTouLmZT6s-36" vertex="1">
          <mxGeometry y="40" width="60" height="20" as="geometry" />
        </mxCell>
        <mxCell id="gfvV_bose1nTouLmZT6s-39" value="&lt;font style=&quot;font-size: 5px;&quot;&gt;Item 3&lt;/font&gt;" style="text;strokeColor=none;fillColor=none;align=center;verticalAlign=middle;spacingLeft=4;spacingRight=4;overflow=hidden;points=[[0,0.5],[1,0.5]];portConstraint=eastwest;rotatable=0;whiteSpace=wrap;html=1;" parent="gfvV_bose1nTouLmZT6s-36" vertex="1">
          <mxGeometry y="60" width="60" height="20" as="geometry" />
        </mxCell>
        <mxCell id="AXXjxFo4343gu81oyU7h-1" value="&lt;font style=&quot;font-size: 7px;&quot;&gt;&lt;b&gt;ft_stock&lt;/b&gt;&lt;/font&gt;" style="swimlane;fontStyle=0;childLayout=stackLayout;horizontal=1;startSize=20;horizontalStack=0;resizeParent=1;resizeParentMax=0;resizeLast=0;collapsible=1;marginBottom=0;whiteSpace=wrap;html=1;fillColor=#0050ef;fontColor=#ffffff;strokeColor=#001DBC;" parent="1" vertex="1">
          <mxGeometry x="1030" y="660" width="60" height="140" as="geometry">
            <mxRectangle x="220" y="110" width="50" height="30" as="alternateBounds" />
          </mxGeometry>
        </mxCell>
        <mxCell id="AXXjxFo4343gu81oyU7h-2" value="&lt;font style=&quot;font-size: 6px;&quot;&gt;&lt;b&gt;pk_stock&lt;/b&gt;&lt;/font&gt;" style="text;strokeColor=none;fillColor=none;align=center;verticalAlign=middle;spacingLeft=4;spacingRight=4;overflow=hidden;points=[[0,0.5],[1,0.5]];portConstraint=eastwest;rotatable=0;whiteSpace=wrap;html=1;" parent="AXXjxFo4343gu81oyU7h-1" vertex="1">
          <mxGeometry y="20" width="60" height="20" as="geometry" />
        </mxCell>
        <mxCell id="AXXjxFo4343gu81oyU7h-3" value="&lt;font style=&quot;font-size: 6px;&quot;&gt;fk_orderDetail&lt;/font&gt;" style="text;strokeColor=none;fillColor=none;align=center;verticalAlign=middle;spacingLeft=4;spacingRight=4;overflow=hidden;points=[[0,0.5],[1,0.5]];portConstraint=eastwest;rotatable=0;whiteSpace=wrap;html=1;" parent="AXXjxFo4343gu81oyU7h-1" vertex="1">
          <mxGeometry y="40" width="60" height="20" as="geometry" />
        </mxCell>
        <mxCell id="AXXjxFo4343gu81oyU7h-4" value="&lt;font style=&quot;font-size: 6px;&quot;&gt;fk_product&lt;/font&gt;" style="text;strokeColor=none;fillColor=none;align=center;verticalAlign=middle;spacingLeft=4;spacingRight=4;overflow=hidden;points=[[0,0.5],[1,0.5]];portConstraint=eastwest;rotatable=0;whiteSpace=wrap;html=1;" parent="AXXjxFo4343gu81oyU7h-1" vertex="1">
          <mxGeometry y="60" width="60" height="20" as="geometry" />
        </mxCell>
        <mxCell id="Rhcf66JnMryJPw94ii83-1" value="&lt;font style=&quot;font-size: 6px;&quot;&gt;fk_time&lt;/font&gt;" style="text;strokeColor=none;fillColor=none;align=center;verticalAlign=middle;spacingLeft=4;spacingRight=4;overflow=hidden;points=[[0,0.5],[1,0.5]];portConstraint=eastwest;rotatable=0;whiteSpace=wrap;html=1;" parent="AXXjxFo4343gu81oyU7h-1" vertex="1">
          <mxGeometry y="80" width="60" height="20" as="geometry" />
        </mxCell>
        <mxCell id="AXXjxFo4343gu81oyU7h-5" value="&lt;span style=&quot;font-size: 6px;&quot;&gt;fk_supplierOrderDetail&lt;/span&gt;" style="text;strokeColor=none;fillColor=none;align=center;verticalAlign=middle;spacingLeft=4;spacingRight=4;overflow=hidden;points=[[0,0.5],[1,0.5]];portConstraint=eastwest;rotatable=0;whiteSpace=wrap;html=1;" parent="AXXjxFo4343gu81oyU7h-1" vertex="1">
          <mxGeometry y="100" width="60" height="20" as="geometry" />
        </mxCell>
        <mxCell id="AXXjxFo4343gu81oyU7h-6" value="&lt;span style=&quot;font-size: 6px;&quot;&gt;fk_upc&lt;/span&gt;" style="text;strokeColor=none;fillColor=none;align=center;verticalAlign=middle;spacingLeft=4;spacingRight=4;overflow=hidden;points=[[0,0.5],[1,0.5]];portConstraint=eastwest;rotatable=0;whiteSpace=wrap;html=1;" parent="AXXjxFo4343gu81oyU7h-1" vertex="1">
          <mxGeometry y="120" width="60" height="20" as="geometry" />
        </mxCell>
        <mxCell id="AXXjxFo4343gu81oyU7h-12" value="" style="endArrow=none;html=1;rounded=0;endFill=0;" parent="1" source="hAHwSwfUb9-SS9wKCGx1-217" target="AXXjxFo4343gu81oyU7h-1" edge="1">
          <mxGeometry relative="1" as="geometry">
            <mxPoint x="710" y="920" as="sourcePoint" />
            <mxPoint x="860" y="780" as="targetPoint" />
            <Array as="points" />
          </mxGeometry>
        </mxCell>
        <mxCell id="AXXjxFo4343gu81oyU7h-13" value="1" style="edgeLabel;resizable=0;html=1;align=left;verticalAlign=bottom;" parent="AXXjxFo4343gu81oyU7h-12" connectable="0" vertex="1">
          <mxGeometry x="-1" relative="1" as="geometry" />
        </mxCell>
        <mxCell id="AXXjxFo4343gu81oyU7h-14" value="N" style="edgeLabel;resizable=0;html=1;align=right;verticalAlign=bottom;" parent="AXXjxFo4343gu81oyU7h-12" connectable="0" vertex="1">
          <mxGeometry x="1" relative="1" as="geometry">
            <mxPoint x="-5" y="14" as="offset" />
          </mxGeometry>
        </mxCell>
        <mxCell id="AXXjxFo4343gu81oyU7h-16" value="&lt;span style=&quot;font-size: 7px;&quot;&gt;&lt;b&gt;dm_manual_referencial&lt;/b&gt;&lt;/span&gt;" style="swimlane;fontStyle=0;childLayout=stackLayout;horizontal=1;startSize=20;horizontalStack=0;resizeParent=1;resizeParentMax=0;resizeLast=0;collapsible=1;marginBottom=0;whiteSpace=wrap;html=1;fillColor=#a20025;fontColor=#ffffff;strokeColor=#6F0000;" parent="1" vertex="1">
          <mxGeometry x="640" y="140" width="90" height="40" as="geometry">
            <mxRectangle x="220" y="110" width="50" height="30" as="alternateBounds" />
          </mxGeometry>
        </mxCell>
        <mxCell id="AXXjxFo4343gu81oyU7h-17" value="&lt;font style=&quot;font-size: 6px;&quot;&gt;&lt;b&gt;pk_manualReferential&lt;/b&gt;&lt;/font&gt;" style="text;strokeColor=none;fillColor=none;align=center;verticalAlign=middle;spacingLeft=4;spacingRight=4;overflow=hidden;points=[[0,0.5],[1,0.5]];portConstraint=eastwest;rotatable=0;whiteSpace=wrap;html=1;" parent="AXXjxFo4343gu81oyU7h-16" vertex="1">
          <mxGeometry y="20" width="90" height="20" as="geometry" />
        </mxCell>
        <mxCell id="AXXjxFo4343gu81oyU7h-22" value="&lt;b style=&quot;&quot;&gt;&lt;font style=&quot;font-size: 8px;&quot;&gt;dm_insuranceConfig&lt;/font&gt;&lt;/b&gt;" style="swimlane;fontStyle=0;childLayout=stackLayout;horizontal=1;startSize=20;horizontalStack=0;resizeParent=1;resizeParentMax=0;resizeLast=0;collapsible=1;marginBottom=0;whiteSpace=wrap;html=1;fillColor=#60a917;fontColor=#ffffff;strokeColor=#2D7600;" parent="1" vertex="1">
          <mxGeometry x="-50" y="1150" width="110" height="60" as="geometry">
            <mxRectangle x="220" y="110" width="50" height="30" as="alternateBounds" />
          </mxGeometry>
        </mxCell>
        <mxCell id="AXXjxFo4343gu81oyU7h-23" value="&lt;span style=&quot;font-size: 6px;&quot;&gt;&lt;b&gt;pk_insuranceConfig&lt;/b&gt;&lt;/span&gt;" style="text;strokeColor=none;fillColor=none;align=center;verticalAlign=middle;spacingLeft=4;spacingRight=4;overflow=hidden;points=[[0,0.5],[1,0.5]];portConstraint=eastwest;rotatable=0;whiteSpace=wrap;html=1;" parent="AXXjxFo4343gu81oyU7h-22" vertex="1">
          <mxGeometry y="20" width="110" height="20" as="geometry" />
        </mxCell>
        <mxCell id="AXXjxFo4343gu81oyU7h-26" value="&lt;font style=&quot;font-size: 6px;&quot;&gt;fk_insuranceProvider&lt;/font&gt;" style="text;strokeColor=none;fillColor=none;align=center;verticalAlign=middle;spacingLeft=4;spacingRight=4;overflow=hidden;points=[[0,0.5],[1,0.5]];portConstraint=eastwest;rotatable=0;whiteSpace=wrap;html=1;" parent="AXXjxFo4343gu81oyU7h-22" vertex="1">
          <mxGeometry y="40" width="110" height="20" as="geometry" />
        </mxCell>
        <mxCell id="AXXjxFo4343gu81oyU7h-31" value="" style="endArrow=none;html=1;rounded=0;endFill=0;" parent="1" source="hAHwSwfUb9-SS9wKCGx1-201" target="AXXjxFo4343gu81oyU7h-22" edge="1">
          <mxGeometry relative="1" as="geometry">
            <mxPoint x="62.99999999999977" y="1040.0002549575074" as="sourcePoint" />
            <mxPoint x="-27.17857142857156" y="1111.5300000000002" as="targetPoint" />
            <Array as="points" />
          </mxGeometry>
        </mxCell>
        <mxCell id="AXXjxFo4343gu81oyU7h-32" value="1" style="edgeLabel;resizable=0;html=1;align=left;verticalAlign=bottom;" parent="AXXjxFo4343gu81oyU7h-31" connectable="0" vertex="1">
          <mxGeometry x="-1" relative="1" as="geometry">
            <mxPoint y="8" as="offset" />
          </mxGeometry>
        </mxCell>
        <mxCell id="AXXjxFo4343gu81oyU7h-33" value="N" style="edgeLabel;resizable=0;html=1;align=right;verticalAlign=bottom;" parent="AXXjxFo4343gu81oyU7h-31" connectable="0" vertex="1">
          <mxGeometry x="1" relative="1" as="geometry">
            <mxPoint x="10" y="8" as="offset" />
          </mxGeometry>
        </mxCell>
        <mxCell id="MuI_MBfWIwYMxkX0AhXJ-9" value="&lt;font size=&quot;1&quot; style=&quot;&quot;&gt;&lt;b style=&quot;font-size: 7px;&quot;&gt;dm_order&lt;/b&gt;&lt;/font&gt;" style="swimlane;fontStyle=0;childLayout=stackLayout;horizontal=1;startSize=20;horizontalStack=0;resizeParent=1;resizeParentMax=0;resizeLast=0;collapsible=1;marginBottom=0;whiteSpace=wrap;html=1;fillColor=#60a917;fontColor=#ffffff;strokeColor=#2D7600;" parent="1" vertex="1">
          <mxGeometry x="730" y="565" width="60" height="40" as="geometry">
            <mxRectangle x="220" y="110" width="50" height="30" as="alternateBounds" />
          </mxGeometry>
        </mxCell>
        <mxCell id="MuI_MBfWIwYMxkX0AhXJ-10" value="&lt;font style=&quot;font-size: 6px;&quot;&gt;&lt;b&gt;pk_order&lt;/b&gt;&lt;/font&gt;" style="text;strokeColor=none;fillColor=none;align=center;verticalAlign=middle;spacingLeft=4;spacingRight=4;overflow=hidden;points=[[0,0.5],[1,0.5]];portConstraint=eastwest;rotatable=0;whiteSpace=wrap;html=1;" parent="MuI_MBfWIwYMxkX0AhXJ-9" vertex="1">
          <mxGeometry y="20" width="60" height="20" as="geometry" />
        </mxCell>
        <mxCell id="MuI_MBfWIwYMxkX0AhXJ-14" value="" style="endArrow=none;html=1;rounded=0;endFill=0;" parent="1" source="MuI_MBfWIwYMxkX0AhXJ-9" target="hAHwSwfUb9-SS9wKCGx1-76" edge="1">
          <mxGeometry relative="1" as="geometry">
            <mxPoint x="361" y="442" as="sourcePoint" />
            <mxPoint x="379" y="558" as="targetPoint" />
            <Array as="points" />
          </mxGeometry>
        </mxCell>
        <mxCell id="MuI_MBfWIwYMxkX0AhXJ-15" value="1" style="edgeLabel;resizable=0;html=1;align=left;verticalAlign=bottom;" parent="MuI_MBfWIwYMxkX0AhXJ-14" connectable="0" vertex="1">
          <mxGeometry x="-1" relative="1" as="geometry">
            <mxPoint x="-4" y="20" as="offset" />
          </mxGeometry>
        </mxCell>
        <mxCell id="MuI_MBfWIwYMxkX0AhXJ-16" value="1" style="edgeLabel;resizable=0;html=1;align=right;verticalAlign=bottom;" parent="MuI_MBfWIwYMxkX0AhXJ-14" connectable="0" vertex="1">
          <mxGeometry x="1" relative="1" as="geometry" />
        </mxCell>
        <mxCell id="fQXlPhNasT5K8zm9rkhj-1" value="&lt;font style=&quot;font-size: 7px;&quot;&gt;&lt;b&gt;dm_purchaseOrderStatus&lt;/b&gt;&lt;/font&gt;" style="swimlane;fontStyle=0;childLayout=stackLayout;horizontal=1;startSize=20;horizontalStack=0;resizeParent=1;resizeParentMax=0;resizeLast=0;collapsible=1;marginBottom=0;whiteSpace=wrap;html=1;fillColor=#a20025;fontColor=#ffffff;strokeColor=#6F0000;" parent="1" vertex="1">
          <mxGeometry x="1310" y="840" width="90" height="40" as="geometry">
            <mxRectangle x="220" y="110" width="50" height="30" as="alternateBounds" />
          </mxGeometry>
        </mxCell>
        <mxCell id="fQXlPhNasT5K8zm9rkhj-2" value="&lt;font style=&quot;font-size: 6px;&quot;&gt;&lt;b&gt;pk_purchaseOrderStatus&lt;/b&gt;&lt;/font&gt;" style="text;strokeColor=none;fillColor=none;align=center;verticalAlign=middle;spacingLeft=4;spacingRight=4;overflow=hidden;points=[[0,0.5],[1,0.5]];portConstraint=eastwest;rotatable=0;whiteSpace=wrap;html=1;" parent="fQXlPhNasT5K8zm9rkhj-1" vertex="1">
          <mxGeometry y="20" width="90" height="20" as="geometry" />
        </mxCell>
        <mxCell id="imUrfT4JQY8mWuX67NXX-7" value="" style="endArrow=none;html=1;rounded=0;endFill=0;" parent="1" source="hAHwSwfUb9-SS9wKCGx1-62" target="gfvV_bose1nTouLmZT6s-24" edge="1">
          <mxGeometry relative="1" as="geometry">
            <mxPoint x="228.5" y="670" as="sourcePoint" />
            <mxPoint x="289.5" y="655" as="targetPoint" />
            <Array as="points" />
          </mxGeometry>
        </mxCell>
        <mxCell id="imUrfT4JQY8mWuX67NXX-8" value="N" style="edgeLabel;resizable=0;html=1;align=left;verticalAlign=bottom;" parent="imUrfT4JQY8mWuX67NXX-7" connectable="0" vertex="1">
          <mxGeometry x="-1" relative="1" as="geometry">
            <mxPoint y="25" as="offset" />
          </mxGeometry>
        </mxCell>
        <mxCell id="imUrfT4JQY8mWuX67NXX-9" value="1" style="edgeLabel;resizable=0;html=1;align=right;verticalAlign=bottom;" parent="imUrfT4JQY8mWuX67NXX-7" connectable="0" vertex="1">
          <mxGeometry x="1" relative="1" as="geometry">
            <mxPoint y="19" as="offset" />
          </mxGeometry>
        </mxCell>
        <mxCell id="hAHwSwfUb9-SS9wKCGx1-106" value="" style="endArrow=none;html=1;rounded=0;endFill=0;" parent="1" source="hAHwSwfUb9-SS9wKCGx1-39" target="MuI_MBfWIwYMxkX0AhXJ-9" edge="1">
          <mxGeometry relative="1" as="geometry">
            <mxPoint x="537.5" y="400" as="sourcePoint" />
            <mxPoint x="370" y="280.0000000000001" as="targetPoint" />
            <Array as="points">
              <mxPoint x="800" y="330" />
            </Array>
          </mxGeometry>
        </mxCell>
        <mxCell id="hAHwSwfUb9-SS9wKCGx1-108" value="N" style="edgeLabel;resizable=0;html=1;align=left;verticalAlign=bottom;" parent="hAHwSwfUb9-SS9wKCGx1-106" connectable="0" vertex="1">
          <mxGeometry x="-1" relative="1" as="geometry">
            <mxPoint x="-11" y="20" as="offset" />
          </mxGeometry>
        </mxCell>
        <mxCell id="hAHwSwfUb9-SS9wKCGx1-109" value="1" style="edgeLabel;resizable=0;html=1;align=right;verticalAlign=bottom;" parent="hAHwSwfUb9-SS9wKCGx1-106" connectable="0" vertex="1">
          <mxGeometry x="1" relative="1" as="geometry">
            <mxPoint x="9" as="offset" />
          </mxGeometry>
        </mxCell>
        <mxCell id="CRgJA5RSXISa-er-ME_p-1" value="&lt;font style=&quot;font-size: 7px;&quot;&gt;&lt;b&gt;dm_time&lt;/b&gt;&lt;/font&gt;" style="swimlane;fontStyle=0;childLayout=stackLayout;horizontal=1;startSize=20;horizontalStack=0;resizeParent=1;resizeParentMax=0;resizeLast=0;collapsible=1;marginBottom=0;whiteSpace=wrap;html=1;fillColor=#60a917;fontColor=#ffffff;strokeColor=#2D7600;" parent="1" vertex="1">
          <mxGeometry x="1100" y="250" width="90" height="40" as="geometry">
            <mxRectangle x="220" y="110" width="50" height="30" as="alternateBounds" />
          </mxGeometry>
        </mxCell>
        <mxCell id="CRgJA5RSXISa-er-ME_p-2" value="&lt;font style=&quot;font-size: 6px;&quot;&gt;&lt;b&gt;pk_time&lt;/b&gt;&lt;/font&gt;" style="text;strokeColor=none;fillColor=none;align=center;verticalAlign=middle;spacingLeft=4;spacingRight=4;overflow=hidden;points=[[0,0.5],[1,0.5]];portConstraint=eastwest;rotatable=0;whiteSpace=wrap;html=1;" parent="CRgJA5RSXISa-er-ME_p-1" vertex="1">
          <mxGeometry y="20" width="90" height="20" as="geometry" />
        </mxCell>
        <mxCell id="tjj1_H0ZLJ3C1L7BvfgK-1" value="" style="endArrow=none;html=1;rounded=0;endFill=0;" parent="1" source="CRgJA5RSXISa-er-ME_p-1" target="hAHwSwfUb9-SS9wKCGx1-43" edge="1">
          <mxGeometry relative="1" as="geometry">
            <mxPoint x="1080" y="210" as="sourcePoint" />
            <mxPoint x="990" y="170" as="targetPoint" />
            <Array as="points" />
          </mxGeometry>
        </mxCell>
        <mxCell id="tjj1_H0ZLJ3C1L7BvfgK-2" value="1" style="edgeLabel;resizable=0;html=1;align=left;verticalAlign=bottom;" parent="tjj1_H0ZLJ3C1L7BvfgK-1" connectable="0" vertex="1">
          <mxGeometry x="-1" relative="1" as="geometry">
            <mxPoint x="-4" as="offset" />
          </mxGeometry>
        </mxCell>
        <mxCell id="tjj1_H0ZLJ3C1L7BvfgK-3" value="N" style="edgeLabel;resizable=0;html=1;align=right;verticalAlign=bottom;" parent="tjj1_H0ZLJ3C1L7BvfgK-1" connectable="0" vertex="1">
          <mxGeometry x="1" relative="1" as="geometry" />
        </mxCell>
        <mxCell id="tjj1_H0ZLJ3C1L7BvfgK-4" value="" style="endArrow=none;html=1;rounded=0;endFill=0;" parent="1" source="CRgJA5RSXISa-er-ME_p-1" target="hAHwSwfUb9-SS9wKCGx1-39" edge="1">
          <mxGeometry relative="1" as="geometry">
            <mxPoint x="1030" y="310" as="sourcePoint" />
            <mxPoint x="940" y="270" as="targetPoint" />
            <Array as="points" />
          </mxGeometry>
        </mxCell>
        <mxCell id="tjj1_H0ZLJ3C1L7BvfgK-5" value="1" style="edgeLabel;resizable=0;html=1;align=left;verticalAlign=bottom;" parent="tjj1_H0ZLJ3C1L7BvfgK-4" connectable="0" vertex="1">
          <mxGeometry x="-1" relative="1" as="geometry">
            <mxPoint x="-10" y="10" as="offset" />
          </mxGeometry>
        </mxCell>
        <mxCell id="tjj1_H0ZLJ3C1L7BvfgK-6" value="N" style="edgeLabel;resizable=0;html=1;align=right;verticalAlign=bottom;" parent="tjj1_H0ZLJ3C1L7BvfgK-4" connectable="0" vertex="1">
          <mxGeometry x="1" relative="1" as="geometry" />
        </mxCell>
        <mxCell id="tjj1_H0ZLJ3C1L7BvfgK-7" value="" style="endArrow=none;html=1;rounded=0;endFill=0;" parent="1" source="CRgJA5RSXISa-er-ME_p-1" target="hAHwSwfUb9-SS9wKCGx1-13" edge="1">
          <mxGeometry relative="1" as="geometry">
            <mxPoint x="1020" y="330" as="sourcePoint" />
            <mxPoint x="930" y="290" as="targetPoint" />
            <Array as="points" />
          </mxGeometry>
        </mxCell>
        <mxCell id="tjj1_H0ZLJ3C1L7BvfgK-8" value="1" style="edgeLabel;resizable=0;html=1;align=left;verticalAlign=bottom;" parent="tjj1_H0ZLJ3C1L7BvfgK-7" connectable="0" vertex="1">
          <mxGeometry x="-1" relative="1" as="geometry">
            <mxPoint x="-10" y="20" as="offset" />
          </mxGeometry>
        </mxCell>
        <mxCell id="tjj1_H0ZLJ3C1L7BvfgK-9" value="N" style="edgeLabel;resizable=0;html=1;align=right;verticalAlign=bottom;" parent="tjj1_H0ZLJ3C1L7BvfgK-7" connectable="0" vertex="1">
          <mxGeometry x="1" relative="1" as="geometry" />
        </mxCell>
        <mxCell id="tjj1_H0ZLJ3C1L7BvfgK-10" value="" style="endArrow=none;html=1;rounded=0;endFill=0;" parent="1" source="CRgJA5RSXISa-er-ME_p-1" target="hAHwSwfUb9-SS9wKCGx1-9" edge="1">
          <mxGeometry relative="1" as="geometry">
            <mxPoint x="1040" y="330" as="sourcePoint" />
            <mxPoint x="1010" y="530" as="targetPoint" />
            <Array as="points" />
          </mxGeometry>
        </mxCell>
        <mxCell id="tjj1_H0ZLJ3C1L7BvfgK-11" value="1" style="edgeLabel;resizable=0;html=1;align=left;verticalAlign=bottom;" parent="tjj1_H0ZLJ3C1L7BvfgK-10" connectable="0" vertex="1">
          <mxGeometry x="-1" relative="1" as="geometry">
            <mxPoint x="-4" y="20" as="offset" />
          </mxGeometry>
        </mxCell>
        <mxCell id="tjj1_H0ZLJ3C1L7BvfgK-12" value="N" style="edgeLabel;resizable=0;html=1;align=right;verticalAlign=bottom;" parent="tjj1_H0ZLJ3C1L7BvfgK-10" connectable="0" vertex="1">
          <mxGeometry x="1" relative="1" as="geometry" />
        </mxCell>
        <mxCell id="tjj1_H0ZLJ3C1L7BvfgK-13" value="" style="endArrow=none;html=1;rounded=0;endFill=0;exitX=0.5;exitY=0;exitDx=0;exitDy=0;entryX=0.75;entryY=0;entryDx=0;entryDy=0;" parent="1" source="CRgJA5RSXISa-er-ME_p-1" target="hAHwSwfUb9-SS9wKCGx1-242" edge="1">
          <mxGeometry relative="1" as="geometry">
            <mxPoint x="1340" y="430" as="sourcePoint" />
            <mxPoint x="1200" y="660" as="targetPoint" />
            <Array as="points">
              <mxPoint x="940" y="840" />
            </Array>
          </mxGeometry>
        </mxCell>
        <mxCell id="tjj1_H0ZLJ3C1L7BvfgK-14" value="1" style="edgeLabel;resizable=0;html=1;align=left;verticalAlign=bottom;" parent="tjj1_H0ZLJ3C1L7BvfgK-13" connectable="0" vertex="1">
          <mxGeometry x="-1" relative="1" as="geometry">
            <mxPoint x="-4" as="offset" />
          </mxGeometry>
        </mxCell>
        <mxCell id="tjj1_H0ZLJ3C1L7BvfgK-15" value="N" style="edgeLabel;resizable=0;html=1;align=right;verticalAlign=bottom;" parent="tjj1_H0ZLJ3C1L7BvfgK-13" connectable="0" vertex="1">
          <mxGeometry x="1" relative="1" as="geometry" />
        </mxCell>
        <mxCell id="tjj1_H0ZLJ3C1L7BvfgK-16" value="" style="endArrow=none;html=1;rounded=0;endFill=0;entryX=0.5;entryY=0;entryDx=0;entryDy=0;" parent="1" source="CRgJA5RSXISa-er-ME_p-1" target="hAHwSwfUb9-SS9wKCGx1-76" edge="1">
          <mxGeometry relative="1" as="geometry">
            <mxPoint x="1150" y="230" as="sourcePoint" />
            <mxPoint x="1030" y="270" as="targetPoint" />
            <Array as="points" />
          </mxGeometry>
        </mxCell>
        <mxCell id="tjj1_H0ZLJ3C1L7BvfgK-17" value="1" style="edgeLabel;resizable=0;html=1;align=left;verticalAlign=bottom;" parent="tjj1_H0ZLJ3C1L7BvfgK-16" connectable="0" vertex="1">
          <mxGeometry x="-1" relative="1" as="geometry">
            <mxPoint x="-4" y="20" as="offset" />
          </mxGeometry>
        </mxCell>
        <mxCell id="tjj1_H0ZLJ3C1L7BvfgK-18" value="N" style="edgeLabel;resizable=0;html=1;align=right;verticalAlign=bottom;" parent="tjj1_H0ZLJ3C1L7BvfgK-16" connectable="0" vertex="1">
          <mxGeometry x="1" relative="1" as="geometry" />
        </mxCell>
        <mxCell id="tjj1_H0ZLJ3C1L7BvfgK-19" value="" style="endArrow=none;html=1;rounded=0;endFill=0;exitX=0.75;exitY=0;exitDx=0;exitDy=0;entryX=0.5;entryY=0;entryDx=0;entryDy=0;" parent="1" source="CRgJA5RSXISa-er-ME_p-1" target="hAHwSwfUb9-SS9wKCGx1-237" edge="1">
          <mxGeometry relative="1" as="geometry">
            <mxPoint x="1250" y="460" as="sourcePoint" />
            <mxPoint x="1160" y="420" as="targetPoint" />
            <Array as="points" />
          </mxGeometry>
        </mxCell>
        <mxCell id="tjj1_H0ZLJ3C1L7BvfgK-20" value="1" style="edgeLabel;resizable=0;html=1;align=left;verticalAlign=bottom;" parent="tjj1_H0ZLJ3C1L7BvfgK-19" connectable="0" vertex="1">
          <mxGeometry x="-1" relative="1" as="geometry">
            <mxPoint x="-4" as="offset" />
          </mxGeometry>
        </mxCell>
        <mxCell id="tjj1_H0ZLJ3C1L7BvfgK-21" value="N" style="edgeLabel;resizable=0;html=1;align=right;verticalAlign=bottom;" parent="tjj1_H0ZLJ3C1L7BvfgK-19" connectable="0" vertex="1">
          <mxGeometry x="1" relative="1" as="geometry" />
        </mxCell>
        <mxCell id="tjj1_H0ZLJ3C1L7BvfgK-22" value="" style="endArrow=none;html=1;rounded=0;endFill=0;" parent="1" source="CRgJA5RSXISa-er-ME_p-1" target="hAHwSwfUb9-SS9wKCGx1-62" edge="1">
          <mxGeometry relative="1" as="geometry">
            <mxPoint x="1150" y="230" as="sourcePoint" />
            <mxPoint x="1050" y="90" as="targetPoint" />
            <Array as="points">
              <mxPoint x="970" y="30" />
            </Array>
          </mxGeometry>
        </mxCell>
        <mxCell id="tjj1_H0ZLJ3C1L7BvfgK-23" value="1" style="edgeLabel;resizable=0;html=1;align=left;verticalAlign=bottom;" parent="tjj1_H0ZLJ3C1L7BvfgK-22" connectable="0" vertex="1">
          <mxGeometry x="-1" relative="1" as="geometry">
            <mxPoint x="-4" as="offset" />
          </mxGeometry>
        </mxCell>
        <mxCell id="tjj1_H0ZLJ3C1L7BvfgK-24" value="N" style="edgeLabel;resizable=0;html=1;align=right;verticalAlign=bottom;" parent="tjj1_H0ZLJ3C1L7BvfgK-22" connectable="0" vertex="1">
          <mxGeometry x="1" relative="1" as="geometry" />
        </mxCell>
        <mxCell id="Rhcf66JnMryJPw94ii83-2" value="" style="endArrow=none;html=1;rounded=0;endFill=0;" parent="1" source="CRgJA5RSXISa-er-ME_p-1" target="AXXjxFo4343gu81oyU7h-1" edge="1">
          <mxGeometry relative="1" as="geometry">
            <mxPoint x="1149" y="130" as="sourcePoint" />
            <mxPoint x="1111" y="710" as="targetPoint" />
            <Array as="points" />
          </mxGeometry>
        </mxCell>
        <mxCell id="Rhcf66JnMryJPw94ii83-3" value="1" style="edgeLabel;resizable=0;html=1;align=left;verticalAlign=bottom;" parent="Rhcf66JnMryJPw94ii83-2" connectable="0" vertex="1">
          <mxGeometry x="-1" relative="1" as="geometry">
            <mxPoint x="-4" as="offset" />
          </mxGeometry>
        </mxCell>
        <mxCell id="Rhcf66JnMryJPw94ii83-4" value="N" style="edgeLabel;resizable=0;html=1;align=right;verticalAlign=bottom;" parent="Rhcf66JnMryJPw94ii83-2" connectable="0" vertex="1">
          <mxGeometry x="1" relative="1" as="geometry" />
        </mxCell>
        <mxCell id="Uzr-jEL80N0Hct5ohTIs-1" value="" style="endArrow=none;html=1;rounded=0;endFill=0;" parent="1" source="hAHwSwfUb9-SS9wKCGx1-192" target="AXXjxFo4343gu81oyU7h-22" edge="1">
          <mxGeometry relative="1" as="geometry">
            <mxPoint x="114" y="1180" as="sourcePoint" />
            <mxPoint x="100" y="1240" as="targetPoint" />
            <Array as="points" />
          </mxGeometry>
        </mxCell>
        <mxCell id="Uzr-jEL80N0Hct5ohTIs-2" value="1" style="edgeLabel;resizable=0;html=1;align=left;verticalAlign=bottom;" parent="Uzr-jEL80N0Hct5ohTIs-1" connectable="0" vertex="1">
          <mxGeometry x="-1" relative="1" as="geometry">
            <mxPoint x="-20" y="21" as="offset" />
          </mxGeometry>
        </mxCell>
        <mxCell id="Uzr-jEL80N0Hct5ohTIs-3" value="1" style="edgeLabel;resizable=0;html=1;align=right;verticalAlign=bottom;" parent="Uzr-jEL80N0Hct5ohTIs-1" connectable="0" vertex="1">
          <mxGeometry x="1" relative="1" as="geometry">
            <mxPoint x="10" y="19" as="offset" />
          </mxGeometry>
        </mxCell>
        <mxCell id="cnVkx_BhgXe-1uo5xZj1-1" value="&lt;font size=&quot;1&quot; style=&quot;&quot;&gt;&lt;b style=&quot;font-size: 6px;&quot;&gt;dm_avoir&lt;/b&gt;&lt;/font&gt;" style="swimlane;fontStyle=0;childLayout=stackLayout;horizontal=1;startSize=20;horizontalStack=0;resizeParent=1;resizeParentMax=0;resizeLast=0;collapsible=1;marginBottom=0;whiteSpace=wrap;html=1;fillColor=#60a917;fontColor=#ffffff;strokeColor=#2D7600;" parent="1" vertex="1">
          <mxGeometry x="753" y="890" width="74" height="60" as="geometry">
            <mxRectangle x="220" y="110" width="50" height="30" as="alternateBounds" />
          </mxGeometry>
        </mxCell>
        <mxCell id="cnVkx_BhgXe-1uo5xZj1-2" value="&lt;font style=&quot;font-size: 6px;&quot;&gt;&lt;b&gt;pk_avoir&lt;/b&gt;&lt;/font&gt;" style="text;strokeColor=none;fillColor=none;align=center;verticalAlign=middle;spacingLeft=4;spacingRight=4;overflow=hidden;points=[[0,0.5],[1,0.5]];portConstraint=eastwest;rotatable=0;whiteSpace=wrap;html=1;" parent="cnVkx_BhgXe-1uo5xZj1-1" vertex="1">
          <mxGeometry y="20" width="74" height="20" as="geometry" />
        </mxCell>
        <mxCell id="cnVkx_BhgXe-1uo5xZj1-4" value="&lt;font style=&quot;font-size: 6px;&quot;&gt;fk_order&lt;/font&gt;" style="text;strokeColor=none;fillColor=none;align=center;verticalAlign=middle;spacingLeft=4;spacingRight=4;overflow=hidden;points=[[0,0.5],[1,0.5]];portConstraint=eastwest;rotatable=0;whiteSpace=wrap;html=1;" parent="cnVkx_BhgXe-1uo5xZj1-1" vertex="1">
          <mxGeometry y="40" width="74" height="20" as="geometry" />
        </mxCell>
        <mxCell id="cnVkx_BhgXe-1uo5xZj1-5" value="&lt;font size=&quot;1&quot; style=&quot;&quot;&gt;&lt;b style=&quot;font-size: 7px;&quot;&gt;ft_avoirDetail&lt;/b&gt;&lt;/font&gt;" style="swimlane;fontStyle=0;childLayout=stackLayout;horizontal=1;startSize=20;horizontalStack=0;resizeParent=1;resizeParentMax=0;resizeLast=0;collapsible=1;marginBottom=0;whiteSpace=wrap;html=1;fillColor=#0050ef;fontColor=#ffffff;strokeColor=#001DBC;" parent="1" vertex="1">
          <mxGeometry x="910" y="880" width="60" height="140" as="geometry">
            <mxRectangle x="220" y="110" width="50" height="30" as="alternateBounds" />
          </mxGeometry>
        </mxCell>
        <mxCell id="cnVkx_BhgXe-1uo5xZj1-6" value="&lt;font style=&quot;font-size: 6px;&quot;&gt;&lt;b&gt;pk_avoirDetail&lt;/b&gt;&lt;/font&gt;" style="text;strokeColor=none;fillColor=none;align=center;verticalAlign=middle;spacingLeft=4;spacingRight=4;overflow=hidden;points=[[0,0.5],[1,0.5]];portConstraint=eastwest;rotatable=0;whiteSpace=wrap;html=1;" parent="cnVkx_BhgXe-1uo5xZj1-5" vertex="1">
          <mxGeometry y="20" width="60" height="20" as="geometry" />
        </mxCell>
        <mxCell id="cnVkx_BhgXe-1uo5xZj1-7" value="&lt;font style=&quot;font-size: 6px;&quot;&gt;fk_orderDetail&lt;/font&gt;" style="text;strokeColor=none;fillColor=none;align=center;verticalAlign=middle;spacingLeft=4;spacingRight=4;overflow=hidden;points=[[0,0.5],[1,0.5]];portConstraint=eastwest;rotatable=0;whiteSpace=wrap;html=1;" parent="cnVkx_BhgXe-1uo5xZj1-5" vertex="1">
          <mxGeometry y="40" width="60" height="20" as="geometry" />
        </mxCell>
        <mxCell id="cnVkx_BhgXe-1uo5xZj1-8" value="&lt;font style=&quot;font-size: 6px;&quot;&gt;fk_time&lt;/font&gt;" style="text;strokeColor=none;fillColor=none;align=center;verticalAlign=middle;spacingLeft=4;spacingRight=4;overflow=hidden;points=[[0,0.5],[1,0.5]];portConstraint=eastwest;rotatable=0;whiteSpace=wrap;html=1;" parent="cnVkx_BhgXe-1uo5xZj1-5" vertex="1">
          <mxGeometry y="60" width="60" height="20" as="geometry" />
        </mxCell>
        <mxCell id="cnVkx_BhgXe-1uo5xZj1-9" value="&lt;font style=&quot;font-size: 6px;&quot;&gt;fk_avoir&lt;/font&gt;" style="text;strokeColor=none;fillColor=none;align=center;verticalAlign=middle;spacingLeft=4;spacingRight=4;overflow=hidden;points=[[0,0.5],[1,0.5]];portConstraint=eastwest;rotatable=0;whiteSpace=wrap;html=1;" parent="cnVkx_BhgXe-1uo5xZj1-5" vertex="1">
          <mxGeometry y="80" width="60" height="20" as="geometry" />
        </mxCell>
        <mxCell id="cnVkx_BhgXe-1uo5xZj1-11" value="&lt;font style=&quot;font-size: 6px;&quot;&gt;fk_order&lt;/font&gt;" style="text;strokeColor=none;fillColor=none;align=center;verticalAlign=middle;spacingLeft=4;spacingRight=4;overflow=hidden;points=[[0,0.5],[1,0.5]];portConstraint=eastwest;rotatable=0;whiteSpace=wrap;html=1;" parent="cnVkx_BhgXe-1uo5xZj1-5" vertex="1">
          <mxGeometry y="100" width="60" height="20" as="geometry" />
        </mxCell>
        <mxCell id="cnVkx_BhgXe-1uo5xZj1-10" value="&lt;font style=&quot;font-size: 6px;&quot;&gt;fk_product&lt;/font&gt;" style="text;strokeColor=none;fillColor=none;align=center;verticalAlign=middle;spacingLeft=4;spacingRight=4;overflow=hidden;points=[[0,0.5],[1,0.5]];portConstraint=eastwest;rotatable=0;whiteSpace=wrap;html=1;" parent="cnVkx_BhgXe-1uo5xZj1-5" vertex="1">
          <mxGeometry y="120" width="60" height="20" as="geometry" />
        </mxCell>
        <mxCell id="lSRn4Pc0g7ZCBZd-9Q03-1" value="" style="endArrow=none;html=1;rounded=0;endFill=0;" parent="1" source="MuI_MBfWIwYMxkX0AhXJ-9" target="cnVkx_BhgXe-1uo5xZj1-1" edge="1">
          <mxGeometry relative="1" as="geometry">
            <mxPoint x="778" y="615" as="sourcePoint" />
            <mxPoint x="818" y="710" as="targetPoint" />
            <Array as="points" />
          </mxGeometry>
        </mxCell>
        <mxCell id="lSRn4Pc0g7ZCBZd-9Q03-2" value="1" style="edgeLabel;resizable=0;html=1;align=left;verticalAlign=bottom;" parent="lSRn4Pc0g7ZCBZd-9Q03-1" connectable="0" vertex="1">
          <mxGeometry x="-1" relative="1" as="geometry" />
        </mxCell>
        <mxCell id="lSRn4Pc0g7ZCBZd-9Q03-3" value="N" style="edgeLabel;resizable=0;html=1;align=right;verticalAlign=bottom;" parent="lSRn4Pc0g7ZCBZd-9Q03-1" connectable="0" vertex="1">
          <mxGeometry x="1" relative="1" as="geometry" />
        </mxCell>
        <mxCell id="lSRn4Pc0g7ZCBZd-9Q03-4" value="" style="endArrow=none;html=1;rounded=0;endFill=0;" parent="1" source="cnVkx_BhgXe-1uo5xZj1-1" target="cnVkx_BhgXe-1uo5xZj1-5" edge="1">
          <mxGeometry relative="1" as="geometry">
            <mxPoint x="788" y="625" as="sourcePoint" />
            <mxPoint x="828" y="720" as="targetPoint" />
            <Array as="points" />
          </mxGeometry>
        </mxCell>
        <mxCell id="lSRn4Pc0g7ZCBZd-9Q03-5" value="1" style="edgeLabel;resizable=0;html=1;align=left;verticalAlign=bottom;" parent="lSRn4Pc0g7ZCBZd-9Q03-4" connectable="0" vertex="1">
          <mxGeometry x="-1" relative="1" as="geometry" />
        </mxCell>
        <mxCell id="lSRn4Pc0g7ZCBZd-9Q03-6" value="N" style="edgeLabel;resizable=0;html=1;align=right;verticalAlign=bottom;" parent="lSRn4Pc0g7ZCBZd-9Q03-4" connectable="0" vertex="1">
          <mxGeometry x="1" relative="1" as="geometry" />
        </mxCell>
        <mxCell id="lSRn4Pc0g7ZCBZd-9Q03-7" value="" style="endArrow=none;html=1;rounded=0;endFill=0;" parent="1" source="hAHwSwfUb9-SS9wKCGx1-188" target="cnVkx_BhgXe-1uo5xZj1-5" edge="1">
          <mxGeometry relative="1" as="geometry">
            <mxPoint x="798" y="635" as="sourcePoint" />
            <mxPoint x="838" y="730" as="targetPoint" />
            <Array as="points" />
          </mxGeometry>
        </mxCell>
        <mxCell id="lSRn4Pc0g7ZCBZd-9Q03-8" value="1" style="edgeLabel;resizable=0;html=1;align=left;verticalAlign=bottom;" parent="lSRn4Pc0g7ZCBZd-9Q03-7" connectable="0" vertex="1">
          <mxGeometry x="-1" relative="1" as="geometry" />
        </mxCell>
        <mxCell id="lSRn4Pc0g7ZCBZd-9Q03-9" value="N" style="edgeLabel;resizable=0;html=1;align=right;verticalAlign=bottom;" parent="lSRn4Pc0g7ZCBZd-9Q03-7" connectable="0" vertex="1">
          <mxGeometry x="1" relative="1" as="geometry" />
        </mxCell>
      </root>
    </mxGraphModel>
  </diagram>
</mxfile>
